<svg width="239" height="81" viewBox="0 0 239 81" fill="none" xmlns="http://www.w3.org/2000/svg">
<rect width="239" height="81" rx="40.5" fill="black"/>
<path fill-rule="evenodd" clip-rule="evenodd" d="M60.8143 39.6867C60.8487 37.0162 62.25 34.5495 64.5272 33.1508C63.0841 31.0917 60.7536 29.833 58.2388 29.7544C55.5931 29.4769 53.0281 31.3361 51.6799 31.3361C50.3056 31.3361 48.2297 29.7819 45.9944 29.8279C43.0533 29.9228 40.3779 31.5529 38.947 34.1219C35.8998 39.3927 38.1727 47.1391 41.0917 51.3996C42.5521 53.4859 44.2589 55.8163 46.4922 55.7337C48.6776 55.6431 49.4938 54.3414 52.1318 54.3414C54.7453 54.3414 55.511 55.7337 57.7897 55.6811C60.1347 55.6431 61.6122 53.5856 63.0214 51.4796C64.0707 49.993 64.8781 48.3501 65.4138 46.6116C62.6285 45.4346 60.8175 42.708 60.8143 39.6867Z" fill="white"/>
<path fill-rule="evenodd" clip-rule="evenodd" d="M56.5104 26.9523C57.789 25.4188 58.4189 23.4477 58.2664 21.4576C56.3129 21.6626 54.5085 22.5954 53.2126 24.0701C51.933 25.5251 51.2847 27.4286 51.4106 29.3613C53.3903 29.3817 55.2699 28.4938 56.5104 26.9523Z" fill="white"/>
<path d="M85.6896 28.982V21.1334H87.9585C88.5824 21.1334 89.1071 21.2231 89.5325 21.4025C89.9579 21.5726 90.3029 21.8276 90.5676 22.1676C90.8418 22.4981 91.0356 22.9043 91.149 23.386C91.2719 23.8582 91.3334 24.3965 91.3334 25.001C91.3334 25.6244 91.2672 26.158 91.1348 26.6019C91.0119 27.0364 90.8512 27.4 90.6527 27.6928C90.4542 27.9856 90.2273 28.217 89.9721 28.387C89.7263 28.557 89.4757 28.6892 89.2205 28.7836C88.9653 28.8686 88.7242 28.9253 88.4973 28.9536C88.2704 28.9725 88.0814 28.982 87.9301 28.982H85.6896ZM84.3425 20V30.1153H87.8167C88.658 30.1153 89.3859 29.9973 90.0004 29.7612C90.6149 29.5251 91.1207 29.185 91.5177 28.7411C91.9147 28.2878 92.2078 27.7353 92.3969 27.0836C92.5859 26.4224 92.6805 25.6669 92.6805 24.8168C92.6805 23.1923 92.2598 21.9834 91.4184 21.19C90.5771 20.3967 89.3765 20 87.8167 20H84.3425Z" fill="white"/>
<path d="M95.2911 26.4602C95.2911 26.0163 95.3478 25.6244 95.4612 25.2843C95.5841 24.9349 95.7496 24.6421 95.9575 24.406C96.1655 24.1699 96.4066 23.9904 96.6807 23.8676C96.9643 23.7449 97.2621 23.6835 97.5741 23.6835C97.886 23.6835 98.1791 23.7449 98.4532 23.8676C98.7368 23.9904 98.9826 24.1699 99.1906 24.406C99.3986 24.6421 99.5593 24.9349 99.6727 25.2843C99.7956 25.6244 99.8571 26.0163 99.8571 26.4602C99.8571 26.9041 99.7956 27.3008 99.6727 27.6503C99.5593 27.9903 99.3986 28.2783 99.1906 28.5145C98.9826 28.7411 98.7368 28.9159 98.4532 29.0386C98.1791 29.1614 97.886 29.2228 97.5741 29.2228C97.2621 29.2228 96.9643 29.1614 96.6807 29.0386C96.4066 28.9159 96.1655 28.7411 95.9575 28.5145C95.7496 28.2783 95.5841 27.9903 95.4612 27.6503C95.3478 27.3008 95.2911 26.9041 95.2911 26.4602ZM94.0148 26.4602C94.0148 26.9986 94.0905 27.4991 94.2417 27.9619C94.393 28.4247 94.6199 28.8309 94.9224 29.1803C95.2249 29.5203 95.5983 29.7895 96.0426 29.9878C96.4869 30.1767 96.9974 30.2712 97.5741 30.2712C98.1602 30.2712 98.6707 30.1767 99.1055 29.9878C99.5498 29.7895 99.9232 29.5203 100.226 29.1803C100.528 28.8309 100.755 28.4247 100.906 27.9619C101.058 27.4991 101.133 26.9986 101.133 26.4602C101.133 25.9219 101.058 25.4213 100.906 24.9585C100.755 24.4863 100.528 24.0801 100.226 23.7401C99.9232 23.3907 99.5498 23.1168 99.1055 22.9184C98.6707 22.7201 98.1602 22.6209 97.5741 22.6209C96.9974 22.6209 96.4869 22.7201 96.0426 22.9184C95.5983 23.1168 95.2249 23.3907 94.9224 23.7401C94.6199 24.0801 94.393 24.4863 94.2417 24.9585C94.0905 25.4213 94.0148 25.9219 94.0148 26.4602Z" fill="white"/>
<path d="M110.098 30.1153L112.438 22.7909H111.19L109.545 28.7836H109.517L107.985 22.7909H106.667L105.192 28.7836H105.164L103.504 22.7909H102.172L104.525 30.1153H105.83L107.305 24.2926H107.333L108.822 30.1153H110.098Z" fill="white"/>
<path d="M113.868 22.7909V30.1153H115.073V25.9785C115.073 25.648 115.115 25.3457 115.2 25.0718C115.295 24.7885 115.432 24.5429 115.612 24.3351C115.791 24.1274 116.013 23.9668 116.278 23.8535C116.552 23.7401 116.874 23.6835 117.242 23.6835C117.706 23.6835 118.07 23.8157 118.334 24.0801C118.599 24.3446 118.731 24.7035 118.731 25.1568V30.1153H119.937V25.2985C119.937 24.9018 119.894 24.5429 119.809 24.2218C119.733 23.8912 119.596 23.6079 119.398 23.3718C119.199 23.1357 118.939 22.9515 118.618 22.8193C118.296 22.687 117.895 22.6209 117.413 22.6209C116.325 22.6209 115.531 23.0648 115.03 23.9526H115.002V22.7909H113.868Z" fill="white"/>
<path d="M122.101 20V30.1153H123.307V20H122.101Z" fill="white"/>
<path d="M126.337 26.4602C126.337 26.0163 126.393 25.6244 126.507 25.2843C126.63 24.9349 126.795 24.6421 127.003 24.406C127.211 24.1699 127.452 23.9904 127.726 23.8676C128.01 23.7449 128.308 23.6835 128.62 23.6835C128.932 23.6835 129.225 23.7449 129.499 23.8676C129.783 23.9904 130.028 24.1699 130.236 24.406C130.444 24.6421 130.605 24.9349 130.718 25.2843C130.841 25.6244 130.903 26.0163 130.903 26.4602C130.903 26.9041 130.841 27.3008 130.718 27.6503C130.605 27.9903 130.444 28.2783 130.236 28.5145C130.028 28.7411 129.783 28.9159 129.499 29.0386C129.225 29.1614 128.932 29.2228 128.62 29.2228C128.308 29.2228 128.01 29.1614 127.726 29.0386C127.452 28.9159 127.211 28.7411 127.003 28.5145C126.795 28.2783 126.63 27.9903 126.507 27.6503C126.393 27.3008 126.337 26.9041 126.337 26.4602ZM125.061 26.4602C125.061 26.9986 125.136 27.4991 125.287 27.9619C125.439 28.4247 125.666 28.8309 125.968 29.1803C126.271 29.5203 126.644 29.7895 127.088 29.9878C127.533 30.1767 128.043 30.2712 128.62 30.2712C129.206 30.2712 129.716 30.1767 130.151 29.9878C130.596 29.7895 130.969 29.5203 131.271 29.1803C131.574 28.8309 131.801 28.4247 131.952 27.9619C132.103 27.4991 132.179 26.9986 132.179 26.4602C132.179 25.9219 132.103 25.4213 131.952 24.9585C131.801 24.4863 131.574 24.0801 131.271 23.7401C130.969 23.3907 130.596 23.1168 130.151 22.9184C129.716 22.7201 129.206 22.6209 128.62 22.6209C128.043 22.6209 127.533 22.7201 127.088 22.9184C126.644 23.1168 126.271 23.3907 125.968 23.7401C125.666 24.0801 125.439 24.4863 125.287 24.9585C125.136 25.4213 125.061 25.9219 125.061 26.4602Z" fill="white"/>
<path d="M140.378 30.087C140.17 30.2098 139.882 30.2712 139.513 30.2712C139.201 30.2712 138.951 30.1862 138.762 30.0162C138.582 29.8367 138.492 29.5487 138.492 29.152C138.161 29.5487 137.774 29.8367 137.33 30.0162C136.895 30.1862 136.422 30.2712 135.911 30.2712C135.581 30.2712 135.264 30.2334 134.961 30.1579C134.668 30.0823 134.413 29.9642 134.196 29.8037C133.978 29.6431 133.803 29.4353 133.671 29.1803C133.548 28.9159 133.487 28.5995 133.487 28.2311C133.487 27.8155 133.558 27.4755 133.699 27.2111C133.841 26.9466 134.026 26.7341 134.252 26.5736C134.489 26.4036 134.753 26.2761 135.047 26.191C135.349 26.106 135.656 26.0352 135.968 25.9785C136.299 25.9124 136.611 25.8652 136.904 25.8369C137.207 25.7991 137.471 25.7519 137.698 25.6952C137.925 25.6291 138.105 25.5394 138.237 25.426C138.369 25.3032 138.436 25.1285 138.436 24.9018C138.436 24.6374 138.384 24.4249 138.28 24.2643C138.185 24.1038 138.057 23.981 137.897 23.896C137.745 23.811 137.571 23.7543 137.372 23.726C137.183 23.6976 136.994 23.6835 136.805 23.6835C136.294 23.6835 135.869 23.7826 135.529 23.981C135.188 24.1699 135.004 24.5335 134.976 25.0718H133.77C133.789 24.6185 133.884 24.236 134.054 23.9243C134.224 23.6126 134.451 23.3623 134.735 23.1734C135.018 22.9751 135.34 22.8334 135.699 22.7484C136.067 22.6634 136.46 22.6209 136.876 22.6209C137.207 22.6209 137.533 22.6445 137.854 22.6918C138.185 22.739 138.483 22.8382 138.748 22.9893C139.012 23.1309 139.225 23.334 139.386 23.5985C139.546 23.8629 139.627 24.2076 139.627 24.6327V28.4011C139.627 28.6845 139.641 28.8923 139.669 29.0245C139.707 29.1567 139.82 29.2228 140.01 29.2228C140.114 29.2228 140.236 29.1992 140.378 29.152V30.087ZM138.421 26.3327C138.27 26.4461 138.072 26.5311 137.826 26.5877C137.58 26.635 137.32 26.6775 137.046 26.7152C136.781 26.7436 136.512 26.7813 136.238 26.8286C135.963 26.8663 135.718 26.9325 135.5 27.0269C135.283 27.1214 135.103 27.2583 134.961 27.4378C134.829 27.6078 134.763 27.8439 134.763 28.1461C134.763 28.3445 134.801 28.5145 134.876 28.6561C134.961 28.7884 135.065 28.897 135.188 28.982C135.321 29.067 135.472 29.1284 135.642 29.1662C135.812 29.2039 135.992 29.2228 136.181 29.2228C136.578 29.2228 136.918 29.1709 137.202 29.067C137.485 28.9536 137.717 28.8167 137.897 28.6561C138.076 28.4861 138.209 28.3067 138.294 28.1178C138.379 27.9194 138.421 27.7353 138.421 27.5653V26.3327Z" fill="white"/>
<path d="M142.663 26.5169C142.663 26.158 142.701 25.8085 142.776 25.4685C142.852 25.1285 142.975 24.8263 143.145 24.5618C143.315 24.2974 143.542 24.0849 143.826 23.9243C144.109 23.7637 144.454 23.6835 144.861 23.6835C145.277 23.6835 145.631 23.7637 145.924 23.9243C146.217 24.0754 146.454 24.2785 146.633 24.5335C146.822 24.7885 146.959 25.086 147.044 25.426C147.13 25.7566 147.172 26.1013 147.172 26.4602C147.172 26.8002 147.13 27.1355 147.044 27.4661C146.969 27.7967 146.841 28.0942 146.662 28.3586C146.482 28.6136 146.25 28.8214 145.967 28.982C145.683 29.1425 145.338 29.2228 144.932 29.2228C144.544 29.2228 144.204 29.1473 143.911 28.9961C143.627 28.845 143.391 28.642 143.202 28.387C143.022 28.1319 142.885 27.8439 142.79 27.5228C142.705 27.1922 142.663 26.8569 142.663 26.5169ZM148.335 30.1153V20H147.13V23.7685H147.101C146.969 23.5512 146.803 23.3718 146.605 23.2301C146.416 23.079 146.213 22.9609 145.995 22.8759C145.778 22.7815 145.56 22.7154 145.343 22.6776C145.125 22.6398 144.922 22.6209 144.733 22.6209C144.175 22.6209 143.684 22.7248 143.258 22.9326C142.842 23.1309 142.493 23.4048 142.209 23.7543C141.935 24.0943 141.727 24.4957 141.585 24.9585C141.453 25.4213 141.387 25.9124 141.387 26.4319C141.387 26.9514 141.457 27.4425 141.599 27.9053C141.741 28.3681 141.949 28.7742 142.223 29.1236C142.507 29.4731 142.857 29.7517 143.273 29.9595C143.698 30.1673 144.194 30.2712 144.761 30.2712C145.272 30.2712 145.74 30.1815 146.165 30.002C146.591 29.8226 146.903 29.5298 147.101 29.1236H147.13V30.1153H148.335Z" fill="white"/>
<path d="M155.582 26.4602C155.582 26.0163 155.639 25.6244 155.752 25.2843C155.875 24.9349 156.041 24.6421 156.249 24.406C156.457 24.1699 156.698 23.9904 156.972 23.8676C157.256 23.7449 157.553 23.6835 157.865 23.6835C158.177 23.6835 158.47 23.7449 158.744 23.8676C159.028 23.9904 159.274 24.1699 159.482 24.406C159.69 24.6421 159.851 24.9349 159.964 25.2843C160.087 25.6244 160.148 26.0163 160.148 26.4602C160.148 26.9041 160.087 27.3008 159.964 27.6503C159.851 27.9903 159.69 28.2783 159.482 28.5145C159.274 28.7411 159.028 28.9159 158.744 29.0386C158.47 29.1614 158.177 29.2228 157.865 29.2228C157.553 29.2228 157.256 29.1614 156.972 29.0386C156.698 28.9159 156.457 28.7411 156.249 28.5145C156.041 28.2783 155.875 27.9903 155.752 27.6503C155.639 27.3008 155.582 26.9041 155.582 26.4602ZM154.306 26.4602C154.306 26.9986 154.382 27.4991 154.533 27.9619C154.684 28.4247 154.911 28.8309 155.214 29.1803C155.516 29.5203 155.89 29.7895 156.334 29.9878C156.778 30.1767 157.289 30.2712 157.865 30.2712C158.451 30.2712 158.962 30.1767 159.397 29.9878C159.841 29.7895 160.214 29.5203 160.517 29.1803C160.819 28.8309 161.046 28.4247 161.198 27.9619C161.349 27.4991 161.425 26.9986 161.425 26.4602C161.425 25.9219 161.349 25.4213 161.198 24.9585C161.046 24.4863 160.819 24.0801 160.517 23.7401C160.214 23.3907 159.841 23.1168 159.397 22.9184C158.962 22.7201 158.451 22.6209 157.865 22.6209C157.289 22.6209 156.778 22.7201 156.334 22.9184C155.89 23.1168 155.516 23.3907 155.214 23.7401C154.911 24.0801 154.684 24.4863 154.533 24.9585C154.382 25.4213 154.306 25.9219 154.306 26.4602Z" fill="white"/>
<path d="M163.129 22.7909V30.1153H164.335V25.9785C164.335 25.648 164.377 25.3457 164.462 25.0718C164.557 24.7885 164.694 24.5429 164.873 24.3351C165.053 24.1274 165.275 23.9668 165.54 23.8535C165.814 23.7401 166.135 23.6835 166.504 23.6835C166.967 23.6835 167.331 23.8157 167.596 24.0801C167.861 24.3446 167.993 24.7035 167.993 25.1568V30.1153H169.198V25.2985C169.198 24.9018 169.156 24.5429 169.071 24.2218C168.995 23.8912 168.858 23.6079 168.66 23.3718C168.461 23.1357 168.201 22.9515 167.88 22.8193C167.558 22.687 167.156 22.6209 166.674 22.6209C165.587 22.6209 164.793 23.0648 164.292 23.9526H164.264V22.7909H163.129Z" fill="white"/>
<path d="M177.196 22.7909V20.595H175.99V22.7909H174.743V23.8535H175.99V28.5145C175.99 28.8545 176.024 29.1284 176.09 29.3362C176.156 29.5439 176.255 29.7045 176.387 29.8178C176.529 29.9312 176.709 30.0115 176.926 30.0587C177.153 30.0965 177.423 30.1153 177.735 30.1153H178.656V29.0528H178.103C177.914 29.0528 177.758 29.0481 177.635 29.0386C177.522 29.0198 177.432 28.9867 177.366 28.9395C177.3 28.8923 177.252 28.8261 177.224 28.7411C177.205 28.6561 177.196 28.5428 177.196 28.4011V23.8535H178.656V22.7909H177.196Z" fill="white"/>
<path d="M180.279 20V30.1153H181.484V25.9785C181.484 25.648 181.527 25.3457 181.612 25.0718C181.706 24.7885 181.843 24.5429 182.023 24.3351C182.203 24.1274 182.425 23.9668 182.69 23.8535C182.964 23.7401 183.285 23.6835 183.654 23.6835C184.117 23.6835 184.481 23.8157 184.746 24.0801C185.01 24.3446 185.143 24.7035 185.143 25.1568V30.1153H186.348V25.2985C186.348 24.9018 186.305 24.5429 186.22 24.2218C186.145 23.8912 186.008 23.6079 185.809 23.3718C185.611 23.1357 185.351 22.9515 185.029 22.8193C184.708 22.687 184.306 22.6209 183.824 22.6209C183.607 22.6209 183.38 22.6445 183.143 22.6918C182.916 22.739 182.694 22.8145 182.477 22.9184C182.269 23.0129 182.08 23.1404 181.91 23.3009C181.739 23.4521 181.607 23.641 181.513 23.8676H181.484V20H180.279Z" fill="white"/>
<path d="M193.533 25.7519H189.321C189.34 25.4685 189.401 25.2041 189.505 24.9585C189.609 24.7035 189.751 24.4815 189.931 24.2926C190.11 24.1038 190.323 23.9574 190.569 23.8535C190.824 23.7401 191.108 23.6835 191.42 23.6835C191.722 23.6835 191.996 23.7401 192.242 23.8535C192.497 23.9574 192.715 24.1038 192.895 24.2926C193.084 24.4721 193.23 24.6893 193.334 24.9443C193.448 25.1993 193.514 25.4685 193.533 25.7519ZM194.695 27.7919H193.504C193.4 28.2736 193.183 28.6325 192.852 28.8686C192.531 29.1048 192.115 29.2228 191.604 29.2228C191.207 29.2228 190.862 29.1567 190.569 29.0245C190.276 28.8923 190.035 28.7175 189.846 28.5003C189.657 28.2736 189.52 28.0186 189.435 27.7353C189.349 27.4425 189.312 27.1355 189.321 26.8144H194.809C194.828 26.3705 194.785 25.903 194.681 25.4119C194.587 24.9207 194.407 24.4674 194.142 24.0518C193.887 23.6362 193.542 23.2962 193.107 23.0318C192.682 22.7579 192.143 22.6209 191.491 22.6209C190.99 22.6209 190.526 22.7154 190.101 22.9043C189.685 23.0932 189.321 23.3576 189.009 23.6976C188.707 24.0376 188.47 24.439 188.3 24.9018C188.13 25.3646 188.045 25.8746 188.045 26.4319C188.064 26.9891 188.144 27.5039 188.286 27.9761C188.437 28.4483 188.659 28.8545 188.952 29.1945C189.245 29.5345 189.605 29.7989 190.03 29.9878C190.465 30.1767 190.975 30.2712 191.562 30.2712C192.393 30.2712 193.084 30.0634 193.632 29.6478C194.18 29.2323 194.535 28.6136 194.695 27.7919Z" fill="white"/>
<path d="M109.895 41.8845C113.515 41.8845 115.902 44.7438 115.902 49.1602C115.902 53.589 113.529 56.4344 109.949 56.4344C108.098 56.5312 106.355 55.5627 105.461 53.941H105.393V61H102.465V42.0336H105.299V44.404H105.353C106.287 42.7925 108.032 41.8245 109.895 41.8845ZM125.595 41.8845C129.216 41.8845 131.602 44.7438 131.602 49.1602C131.602 53.589 129.23 56.4344 125.649 56.4344C123.799 56.5312 122.055 55.5627 121.161 53.941H121.093V61H118.165V42.0336H120.999V44.404H121.053C121.987 42.7925 123.732 41.8245 125.595 41.8845ZM146.616 36.4119C150.751 36.4119 153.585 38.7285 153.68 42.1012H150.725C150.548 40.1504 148.934 38.9729 146.575 38.9729C144.216 38.9729 142.602 40.1643 142.602 41.8983C142.602 43.2802 143.633 44.0934 146.155 44.716L148.31 45.2448C152.325 46.1932 153.993 47.8043 153.993 50.6635C153.993 54.3206 151.077 56.6111 146.439 56.6111C142.1 56.6111 139.171 54.3744 138.982 50.8387L141.979 50.8389C142.196 52.7774 144.081 54.0501 146.656 54.0501C149.124 54.0501 150.9 52.7773 150.9 51.0294C150.9 49.5122 149.829 48.6037 147.293 47.9811L144.758 47.3708C141.165 46.5038 139.497 44.8252 139.497 42.1012C139.497 38.7285 142.439 36.4119 146.616 36.4119ZM171.361 41.8584C175.497 41.8584 178.128 44.6761 178.128 49.1602C178.128 53.6567 175.511 56.4621 171.361 56.4621C167.213 56.4621 164.596 53.6566 164.596 49.1602C164.596 44.6761 167.239 41.8584 171.361 41.8584ZM195.072 41.8584C199.018 41.8584 201.5 44.567 201.5 48.8881V49.8904H191.425V50.0672C191.331 51.1282 191.698 52.1785 192.432 52.9508C193.166 53.7232 194.197 54.1432 195.262 54.104C196.683 54.237 198.023 53.4218 198.557 52.0994L201.337 52.0994C200.943 54.6866 198.421 56.4621 195.195 56.4621C191.045 56.4621 188.469 53.6843 188.469 49.2279C188.469 44.7576 191.059 41.8584 195.072 41.8584ZM160.312 38.6609V42.0336H163.025V44.3502H160.312V52.207C160.312 53.4276 160.855 53.9964 162.048 53.9964C162.37 53.9908 162.691 53.9682 163.011 53.9287V56.2315C162.475 56.3315 161.93 56.3769 161.384 56.3667C158.496 56.3667 157.37 55.283 157.37 52.519V44.3502H155.296V42.0336H157.37V38.6609H160.312ZM93.5823 36.7378L100.646 56.2853H97.4336L95.6441 51.0018H88.1863L86.3953 56.2853H83.2365L90.3004 36.7378H93.5823ZM186.834 41.8845C187.171 41.8833 187.508 41.9199 187.837 41.9936V44.7299C187.411 44.5999 186.966 44.5401 186.521 44.5531C185.66 44.5182 184.827 44.861 184.241 45.4914C183.654 46.1218 183.373 46.9768 183.47 47.832V56.2853H180.542V42.0336H183.335V44.4593H183.402C183.792 42.8978 185.224 41.8231 186.834 41.8845ZM171.361 44.2688C168.988 44.2688 167.579 46.0981 167.579 49.1602C167.579 52.2485 168.988 54.0502 171.361 54.0502C173.734 54.0502 175.145 52.2485 175.145 49.1602C175.145 46.0842 173.734 44.2688 171.361 44.2688ZM109.123 44.3779C106.885 44.3779 105.381 46.3148 105.381 49.1602C105.381 52.0318 106.885 53.9549 109.123 53.9549C111.4 53.9549 112.892 52.0718 112.892 49.1602C112.892 46.2749 111.4 44.3779 109.123 44.3779ZM124.823 44.3779C122.586 44.3779 121.081 46.3148 121.081 49.1602C121.081 52.0318 122.586 53.9549 124.823 53.9549C127.1 53.9549 128.593 52.0718 128.593 49.1602C128.593 46.2749 127.1 44.3779 124.823 44.3779ZM91.9561 39.9891H91.8745L88.9587 48.5638H94.8703L91.9561 39.9891ZM195.072 44.2288C194.108 44.223 193.183 44.6019 192.501 45.2811C191.819 45.9604 191.436 46.8837 191.439 47.8459H198.57C198.624 46.8925 198.276 45.9602 197.612 45.2736C196.948 44.5869 196.027 44.2083 195.072 44.2288Z" fill="white"/>
</svg>
