<svg width="255" height="44" viewBox="0 0 255 44" fill="none" xmlns="http://www.w3.org/2000/svg">
<path d="M56.0157 32.0156V11.9836H62.6309V18.7447H68.8296V11.9836H75.4545V32.0156H68.8296V24.2433H62.6309V32.0156H56.0157ZM85.923 16.9611H87.6379C88.8723 16.9611 89.7754 17.0885 90.3527 17.3442C90.7798 17.53 91.1271 17.8078 91.4317 18.2227C91.7096 18.6323 91.9343 19.149 92.0995 19.7984C92.2496 20.4425 92.3295 21.1237 92.3295 21.8421C92.3295 23.0135 92.1697 23.9929 91.8215 24.7865C91.485 25.5792 90.9992 26.149 90.374 26.5002C89.7488 26.8576 88.819 27.0275 87.5899 27.0275L85.923 27.0381V16.9611ZM88.4771 32.0156C90.0374 32.0156 91.3304 31.8882 92.3881 31.6059C93.452 31.3343 94.317 30.9725 94.9795 30.5407C95.6535 30.0984 96.2618 29.5029 96.8231 28.7624C97.379 27.9963 97.8657 27.0328 98.244 25.8517C98.6348 24.675 98.8212 23.3488 98.8212 21.8483C98.8212 19.6445 98.3994 17.7812 97.5451 16.2268C96.6792 14.7042 95.5034 13.6018 94.0017 12.9533C92.5062 12.303 90.7212 11.9836 88.6476 11.9836H79.4517V32.0156H88.4771ZM101.852 32.0156V11.9836H117.54V16.9239H108.381V20.1337H115.708V24.9404H108.381V32.0156H101.852ZM139.693 19.6445H133.448C133.33 18.6483 132.966 17.8609 132.362 17.2964C131.753 16.7426 130.99 16.4709 130.049 16.4709C128.879 16.4709 127.927 16.9239 127.196 17.8184C126.459 18.7235 126.089 20.1868 126.089 22.1995C126.089 23.6045 126.255 24.6591 126.56 25.3775C126.875 26.1171 127.318 26.6497 127.869 27.0063C128.435 27.3628 129.125 27.5282 129.974 27.5282C130.99 27.5282 131.801 27.2717 132.394 26.6869C133.004 26.1383 133.356 25.3191 133.474 24.222H139.833C139.693 25.4677 139.442 26.5108 139.079 27.3628C138.733 28.2095 138.112 29.0509 137.273 29.8966C136.413 30.7609 135.378 31.4342 134.238 31.8722C133.068 32.335 131.716 32.5535 130.166 32.5535C128.639 32.5535 127.212 32.335 125.924 31.8882C124.62 31.4299 123.519 30.7805 122.643 29.9657C121.75 29.1199 121.056 28.1723 120.559 27.1018C119.843 25.596 119.506 23.9398 119.506 22.0925C119.506 20.5486 119.757 19.0844 120.265 17.7441C120.772 16.4126 121.473 15.2792 122.365 14.3635C123.263 13.4523 124.24 12.771 125.331 12.3136C126.709 11.7279 128.227 11.4466 129.91 11.4466C131.374 11.4466 132.731 11.6589 134.013 12.0898C135.29 12.5215 136.338 13.1497 137.155 13.9858C137.978 14.8109 138.626 15.7915 139.063 16.87C139.383 17.6317 139.587 18.5527 139.693 19.6445ZM160.881 16.4931C161.816 16.4931 162.42 16.5355 162.719 16.6205C163.087 16.7249 163.414 16.9407 163.653 17.238C163.889 17.5362 164.012 17.8821 164.012 18.282C164.012 18.7925 163.809 19.2127 163.419 19.5321C163.002 19.8683 162.291 20.0222 161.27 20.0222H158.781V16.4922L160.881 16.4931ZM162.542 32.0156C164.108 32.0156 165.208 31.9412 165.855 31.8032C166.531 31.6389 167.188 31.4068 167.817 31.1105C168.468 30.7699 168.971 30.4505 169.301 30.0993C169.815 29.625 170.194 29.0509 170.472 28.3581C170.75 27.6609 170.889 26.8735 170.889 26.0269C170.889 24.8183 170.589 23.823 169.981 23.0135C169.372 22.1995 168.554 21.6616 167.523 21.3688C169.269 20.2717 170.141 18.8562 170.141 17.131C170.141 15.3482 169.372 13.9858 167.849 13.0594C166.673 12.3455 164.84 11.9836 162.355 11.9836H152.379V32.0156H162.542ZM161.479 23.6257C162.788 23.6257 163.637 23.785 164.065 24.1212C164.461 24.4459 164.675 24.8926 164.675 25.4943C164.675 26.1012 164.461 26.5807 164.028 26.916C163.616 27.2726 162.756 27.4212 161.479 27.4212H158.781V23.6257H161.479ZM185.418 25.2819H181.212L183.286 17.9936L185.418 25.2819ZM179.235 32.0156L179.999 29.3862H186.582L187.352 32.0156H193.93L186.716 11.9836H179.999L172.78 32.0156H179.235ZM196.708 32.0156V11.9836H202.869L209.821 22.71V11.9836H216.158V32.0156H209.864L203.061 21.5555V32.0156H196.708ZM220.567 32.0156V11.9836H226.974V18.5899L232.953 11.9836H240.722L233.354 19.5268L241.487 32.0156H233.568L228.731 24.0353L226.973 25.7659V32.0156H220.567Z" fill="#C4C4C4"/>
<path d="M0 0.831665H42.4964V43.1684H0V0.831665Z" fill="#C4C4C4"/>
<path d="M7.43787 8.24115H35.0637V35.7632H7.43787V8.24115Z" fill="white"/>
<path d="M19.1234 0.831665H23.3719V43.1684H19.1234V0.831665Z" fill="white"/>
<path d="M0 19.8886H42.4965V24.1211H0V19.8886Z" fill="white"/>
<path d="M14.8762 15.6508H27.6252V28.3528H14.8762V15.6508Z" fill="#E2E2E2"/>
</svg>
