<svg width="55" height="55" viewBox="0 0 55 55" fill="none" xmlns="http://www.w3.org/2000/svg">
<rect width="55" height="55" rx="10" fill="white" fill-opacity="0.25"/>
<g clip-path="url(#clip0)">
<path d="M16.8636 34.6457C14.3314 35.5724 11.537 34.2518 10.6117 31.6951C9.685 29.1385 10.987 26.314 13.5149 25.3873L18.1584 23.6872L21.5071 32.9455L16.8636 34.6457ZM25.8613 39.1889C25.2354 38.9726 24.6954 38.573 24.3015 38.0431L21.9597 34.8892L17.2317 36.6208L20.9586 41.4233C21.3768 41.9618 22.0901 42.1681 22.7303 41.9332L25.9043 40.773C26.2323 40.6527 26.4514 40.3333 26.45 39.981C26.4471 39.6286 26.2265 39.3164 25.8928 39.2004L25.8613 39.1889ZM20.0032 23.0126L23.3519 32.2709C26.4385 31.6737 30.6237 31.6966 36.0936 32.8453L29.3976 14.33C25.8513 18.8632 22.7189 21.4972 20.0032 23.0126ZM35.4648 18.5696C36.6909 19.1583 37.6935 20.2153 38.1761 21.6018C38.6617 22.9868 38.54 24.4377 37.9513 25.6638L39.9665 26.6349C40.8044 24.8932 40.9806 22.8307 40.2916 20.8627C39.6027 18.8933 38.1804 17.3908 36.4402 16.553L35.4648 18.5696ZM37.1664 15.039C39.2948 16.0631 41.0307 17.9007 41.8729 20.307C42.7151 22.7132 42.5002 25.2355 41.4761 27.3639L43.5429 28.3608C44.822 25.701 45.0884 22.5528 44.0385 19.5479C42.9858 16.5444 40.8202 14.2513 38.1633 12.9722L37.1664 15.039Z" fill="white"/>
</g>
<defs>
<clipPath id="clip0">
<rect width="34.375" height="34.375" fill="white" transform="translate(10.3125 10.3125)"/>
</clipPath>
</defs>
</svg>
