<svg width="186" height="32" viewBox="0 0 186 32" fill="none" xmlns="http://www.w3.org/2000/svg">
<path fill-rule="evenodd" clip-rule="evenodd" d="M0 0H186V32H0V0Z" fill="white"/>
<path fill-rule="evenodd" clip-rule="evenodd" d="M44.1408 19.8114V20.7329C44.1408 24.1671 44.0858 27.2656 40.3833 29.6529C36.6817 31.9977 32.1619 31.9562 27.425 31.9562C16.3184 31.9562 8.20605 31.5374 8.20605 20.0623V11.9374C8.20605 1.55167 15.447 0.043457 27.425 0.043457C38.6416 0.043457 43.8677 0.922519 44.0848 10.3462V11.5601H32.8702V10.3462C32.489 7.54013 29.93 7.33074 26.2275 7.33074C20.0209 7.33074 19.4226 8.7965 19.4226 13.2777V18.1777C19.4226 22.8683 19.6948 24.6709 26.2275 24.6709C30.7463 24.6709 32.9242 24.418 32.9242 20.7339V19.8123H44.1408V19.8114ZM55.8901 26.3026L53.8752 31.7063H42.5515L54.8016 0.295303H71.3534L83.7665 31.7063H72.6599L70.5361 26.3026H55.8901ZM63.2951 6.57712H63.186L58.231 20.1887H68.3582L63.2951 6.57712ZM102.327 12.608C114.415 13.2777 117.409 14.4501 117.409 21.6544C117.409 26.8468 117.682 31.9562 99.7152 31.9562C89.3159 31.9562 82.4011 31.7883 82.4011 21.4865H92.8544C92.8544 24.7529 94.38 25.0877 99.7152 25.0877C104.832 25.0877 106.521 24.8349 106.521 22.1967C106.521 19.4756 105.922 19.5171 100.805 19.2662L98.4077 19.1398C88.3356 18.5955 82.4561 18.638 82.4561 9.63311C82.4561 0.629176 89.0438 0.043457 99.7152 0.043457C108.645 0.043457 116.266 0.168899 116.266 8.83799V10.1358H105.812C105.812 6.91099 104.07 6.91099 99.7152 6.91099C93.8348 6.91099 93.3446 7.83251 93.3446 9.59161C93.3446 12.1043 94.9242 12.1883 97.8094 12.3552L102.327 12.608ZM130.902 31.7053H120.015V0.295303H130.902V31.7053ZM133.352 20.4396V11.5611C133.352 1.88747 141.193 0.0444214 152.244 0.0444214C163.296 0.0444214 171.136 1.88747 171.136 11.5611V20.4396C171.136 30.1132 163.296 31.9572 152.244 31.9572C141.193 31.9572 133.352 30.1132 133.352 20.4396ZM159.921 19.5171V12.4401C159.921 7.79199 157.908 7.33074 152.245 7.33074C146.584 7.33074 144.733 7.79199 144.569 12.4401V19.5171C144.733 24.2077 146.584 24.6699 152.245 24.6699C157.908 24.6699 159.921 24.2086 159.921 19.5171ZM176.355 28.8433H175.132L174.206 27.3881H174.195V28.8433H173.213V25.0646H174.68C175.426 25.0646 175.994 25.4187 175.994 26.2273C175.994 26.7474 175.703 27.1981 175.167 27.2936L176.355 28.8433ZM174.195 26.758H174.291C174.612 26.758 174.972 26.6982 174.972 26.2871C174.972 25.8761 174.612 25.8162 174.291 25.8162H174.195V26.758Z" fill="#C4C4C4"/>
<path d="M174.57 29.8422C175.323 29.8422 176.007 29.5372 176.501 29.0413C176.885 28.6595 177.147 28.1725 177.253 27.6419C177.359 27.1112 177.305 26.561 177.098 26.061C176.891 25.561 176.541 25.1338 176.09 24.8335C175.64 24.5333 175.111 24.3736 174.57 24.3747C174.21 24.3742 173.855 24.4446 173.523 24.5818C173.19 24.7191 172.889 24.9205 172.635 25.1746C172.381 25.4286 172.179 25.7303 172.042 26.0623C171.905 26.3943 171.834 26.7501 171.835 27.1094C171.835 27.863 172.142 28.5472 172.636 29.0413C173.132 29.5363 173.814 29.8422 174.57 29.8422ZM176.85 29.3896C176.551 29.6895 176.195 29.9273 175.804 30.0895C175.413 30.2516 174.993 30.3348 174.57 30.3343C174.146 30.3352 173.726 30.2521 173.334 30.09C172.942 29.9278 172.587 29.6898 172.287 29.3896C171.988 29.0904 171.75 28.7349 171.588 28.3436C171.426 27.9524 171.342 27.5329 171.343 27.1094C171.343 26.2178 171.705 25.4111 172.287 24.8292C172.587 24.529 172.943 24.2909 173.334 24.1286C173.726 23.9663 174.146 23.883 174.57 23.8835C175.459 23.8835 176.266 24.2454 176.85 24.8292C177.434 25.412 177.795 26.2178 177.795 27.1094C177.795 27.9981 177.435 28.8048 176.85 29.3896Z" fill="#C4C4C4"/>
</svg>
