<svg width="14" height="8" viewBox="0 0 14 8" fill="none" xmlns="http://www.w3.org/2000/svg">
<g clip-path="url(#clip0)">
<path d="M6.65696 5.41447L11.607 0.464468C11.6992 0.368958 11.8096 0.292775 11.9316 0.240366C12.0536 0.187957 12.1848 0.160371 12.3176 0.159217C12.4503 0.158064 12.582 0.183365 12.7049 0.233646C12.8278 0.283927 12.9395 0.35818 13.0334 0.452073C13.1272 0.545966 13.2015 0.657618 13.2518 0.780514C13.3021 0.90341 13.3274 1.03509 13.3262 1.16787C13.3251 1.30065 13.2975 1.43187 13.2451 1.55387C13.1927 1.67588 13.1165 1.78622 13.021 1.87847L7.36396 7.53547C7.17643 7.72294 6.92212 7.82825 6.65696 7.82825C6.39179 7.82825 6.13749 7.72294 5.94996 7.53547L0.292959 1.87847C0.197449 1.78622 0.121267 1.67588 0.0688577 1.55387C0.0164487 1.43187 -0.0111375 1.30065 -0.0122913 1.16787C-0.0134452 1.03509 0.0118565 0.90341 0.0621374 0.780514C0.112418 0.657618 0.186671 0.545966 0.280564 0.452073C0.374457 0.35818 0.486109 0.283927 0.609005 0.233646C0.731901 0.183365 0.863581 0.158064 0.99636 0.159217C1.12914 0.160371 1.26036 0.187957 1.38236 0.240366C1.50437 0.292775 1.61471 0.368958 1.70696 0.464468L6.65696 5.41447Z" fill="#201F23"/>
</g>
<defs>
<clipPath id="clip0">
<rect width="13.314" height="7.657" fill="white" transform="translate(0 0.171509)"/>
</clipPath>
</defs>
</svg>
