<svg width="15" height="13" viewBox="0 0 15 13" fill="none" xmlns="http://www.w3.org/2000/svg">
<path d="M7.33817 11.4829L7.33786 11.4827L7.33817 11.4829ZM6.50574 2.04631L7.10903 2.86312L7.71232 2.04631C8.31071 1.23613 9.25718 0.75 10.2748 0.75C12.0308 0.75 13.4681 2.18933 13.4681 3.96603C13.4681 4.5537 13.3095 5.12713 13.0107 5.6255L13.0054 5.63445L13.0043 5.6364C12.2432 6.88435 10.7896 8.30111 9.44449 9.45614C8.43081 10.3266 7.52139 11.0127 7.10905 11.3163C6.6966 11.0126 5.78727 10.3265 4.77369 9.45614C3.4285 8.30105 1.97479 6.88418 1.21363 5.63616L1.21189 5.63319L1.20731 5.6255L1.20732 5.6255C0.908606 5.12713 0.75 4.5537 0.75 3.96603C0.75 2.18933 2.18725 0.75 3.94324 0.75C4.96102 0.75 5.90733 1.23611 6.50574 2.04631ZM1.21504 5.63856L1.21513 5.63871L1.21504 5.63856Z" fill="#484848" stroke="#484848" stroke-width="1.5"/>
</svg>
