<svg width="21" height="22" viewBox="0 0 21 22" fill="none" xmlns="http://www.w3.org/2000/svg">
<path fill-rule="evenodd" clip-rule="evenodd" d="M16.4464 8.56594L18.6547 6.358C20.1856 9.1342 20.1848 12.5639 18.6518 15.3393L16.4443 13.1318C17.0058 11.6739 17.0071 10.0238 16.4464 8.56594ZM2.34528 6.35758L4.55364 8.56552C3.9942 10.0212 3.9942 11.6693 4.55364 13.125L2.34528 15.333C0.81522 12.5593 0.81522 9.1321 2.34528 6.35758ZM12.7798 4.89892C11.3219 4.33864 9.67176 4.33948 8.21436 4.90102L6.00684 2.6935C8.78178 1.1605 12.2119 1.15966 14.9881 2.69056L12.7798 4.89892ZM12.7798 16.7921L14.9877 19.0004C12.2136 20.5301 8.78556 20.5301 6.01188 19.0004L8.21982 16.7925C9.67554 17.3519 11.3236 17.3515 12.7798 16.7921ZM10.5 5.67088C13.3615 5.67088 15.6748 7.98424 15.6748 10.8457C15.6748 13.7072 13.3615 16.0205 10.5 16.0205C7.63854 16.0205 5.32518 13.7072 5.32518 10.8457C5.32518 7.98424 7.63854 5.67088 10.5 5.67088ZM21 10.8457C21 5.04718 16.2985 0.345703 10.5 0.345703C4.70148 0.345703 0 5.04718 0 10.8457C0 16.6442 4.70148 21.3457 10.5 21.3457C16.2985 21.3457 21 16.6442 21 10.8457Z" fill="#333333"/>
</svg>
