<svg width="24" height="24" viewBox="0 0 13 13" fill="none" xmlns="http://www.w3.org/2000/svg">
<path d="M6.5 0C2.90553 0 0 2.90553 0 6.5C0 10.0945 2.90553 13 6.5 13C10.0945 13 13 10.0945 13 6.5C13 2.90553 10.0945 0 6.5 0ZM9.64516 5.15207L5.79608 8.98617C5.67627 9.10599 5.5265 9.1659 5.37673 9.1659C5.22696 9.1659 5.06221 9.10599 4.95737 8.98617L3.0553 7.09908C2.81567 6.85945 2.81567 6.48502 3.0553 6.24539C3.29493 6.00576 3.66935 6.00576 3.90899 6.24539L5.37673 7.71313L8.79147 4.29839C9.03111 4.05876 9.40553 4.05876 9.64516 4.29839C9.86981 4.53802 9.86981 4.92742 9.64516 5.15207Z" fill="#279B44"/>
<path d="M6.5 0C2.90553 0 0 2.90553 0 6.5C0 10.0945 2.90553 13 6.5 13C10.0945 13 13 10.0945 13 6.5C13 2.90553 10.0945 0 6.5 0ZM9.64516 5.15207L5.79608 8.98617C5.67627 9.10599 5.5265 9.1659 5.37673 9.1659C5.22696 9.1659 5.06221 9.10599 4.95737 8.98617L3.0553 7.09908C2.81567 6.85945 2.81567 6.48502 3.0553 6.24539C3.29493 6.00576 3.66935 6.00576 3.90899 6.24539L5.37673 7.71313L8.79147 4.29839C9.03111 4.05876 9.40553 4.05876 9.64516 4.29839C9.86981 4.53802 9.86981 4.92742 9.64516 5.15207Z" fill="#279B44"/>
</svg>
