<svg width="15" height="13" viewBox="0 0 15 13" fill="none" xmlns="http://www.w3.org/2000/svg">
<rect width="15" height="13" fill="#E5E5E5"/>
<mask id="path-1-inside-1_24_2260" fill="white">
<rect x="-5399" y="-1828" width="8212" height="3841" rx="24"/>
</mask>
<rect x="-5399" y="-1828" width="8212" height="3841" rx="24" stroke="black" stroke-width="60" mask="url(#path-1-inside-1_24_2260)"/>
<g clip-path="url(#clip0_24_2260)">
<g filter="url(#filter0_d_24_2260)">
<rect x="-18" y="-99" width="251" height="811.001" fill="white"/>
</g>
<rect width="251" height="47.941" transform="translate(-18 -18)" fill="white"/>
<rect width="16" height="16" transform="translate(-1 -1)" fill="white"/>
<path d="M4.12739 3.34925H1.62194C0.764376 3.34925 0.0664062 4.03104 0.0664062 4.86896V7.67999C0.0664062 8.52153 0.76413 9.20646 1.62194 9.20646H4.12049C4.25644 9.20646 4.37392 9.09118 4.37392 8.95777V3.59094C4.37367 3.45753 4.26334 3.34925 4.12739 3.34925ZM10.6096 0.600098C10.1712 0.600098 9.81434 0.95344 9.81434 1.3875V11.1677C9.81434 11.6018 10.1712 11.9551 10.6096 11.9551H10.6165C11.0551 11.9551 11.412 11.6018 11.412 11.1677V1.3875C11.4122 0.95344 11.0551 0.600098 10.6096 0.600098ZM14.2201 6.03605H12.5942C12.4582 6.03605 12.3479 6.14433 12.3479 6.27774C12.3479 6.41115 12.4582 6.51942 12.5942 6.51942H14.2201C14.3561 6.51942 14.4664 6.41115 14.4664 6.27774C14.4664 6.14433 14.3563 6.03605 14.2201 6.03605ZM12.1651 5.449C12.2282 5.449 12.2912 5.42532 12.3395 5.37819L13.4867 4.25218C13.583 4.15769 13.5827 4.0047 13.4867 3.9102C13.3906 3.8157 13.2345 3.81594 13.1382 3.9102L11.991 5.03621C11.8947 5.1307 11.8949 5.28369 11.991 5.37819C12.039 5.42532 12.1021 5.449 12.1651 5.449ZM12.3043 7.16351C12.208 7.06901 12.0521 7.06901 11.9558 7.16351C11.8597 7.25801 11.8597 7.41099 11.9558 7.50549L13.103 8.63125C13.151 8.67838 13.2143 8.70183 13.2773 8.70183C13.3404 8.70183 13.4034 8.67838 13.4517 8.63125C13.5478 8.53676 13.5478 8.38377 13.4517 8.28927L12.3043 7.16351ZM2.065 9.68959V11.741C2.065 12.3616 2.58294 12.8668 3.21934 12.8668H4.12025C4.2562 12.8668 4.36653 12.7585 4.36653 12.6251V9.64536C4.28895 9.67219 4.20694 9.68959 4.12025 9.68959H2.065ZM4.82265 3.35481C4.849 3.42925 4.86624 3.50804 4.86624 3.59118V8.95801C4.86624 9.04357 4.84851 9.12429 4.82068 9.20066C6.62028 9.22096 8.46544 9.50349 9.32153 10.1962V2.3656C8.98313 2.63918 8.4716 2.86105 7.78767 3.02854C6.74244 3.28472 5.55732 3.3449 4.82265 3.35481Z" fill="#484848"/>
</g>
<defs>
<filter id="filter0_d_24_2260" x="-18.33" y="-99" width="251.33" height="811.001" filterUnits="userSpaceOnUse" color-interpolation-filters="sRGB">
<feFlood flood-opacity="0" result="BackgroundImageFix"/>
<feColorMatrix in="SourceAlpha" type="matrix" values="0 0 0 0 0 0 0 0 0 0 0 0 0 0 0 0 0 0 127 0" result="hardAlpha"/>
<feOffset dx="-0.33"/>
<feColorMatrix type="matrix" values="0 0 0 0 0.235294 0 0 0 0 0.235294 0 0 0 0 0.262745 0 0 0 0.29 0"/>
<feBlend mode="normal" in2="BackgroundImageFix" result="effect1_dropShadow_24_2260"/>
<feBlend mode="normal" in="SourceGraphic" in2="effect1_dropShadow_24_2260" result="shape"/>
</filter>
<clipPath id="clip0_24_2260">
<rect width="375" height="812" fill="white" transform="translate(-18 -99)"/>
</clipPath>
</defs>
</svg>
