<svg width="290" height="209" viewBox="0 0 290 209" fill="none" xmlns="http://www.w3.org/2000/svg">
<g clip-path="url(#clip0_2_7494)">
<path d="M278.35 209C261.319 209 31.0613 208.501 31.0613 208.474C30.9659 208.25 1.83136 172.392 38.5179 134.902C56.6963 116.327 21.8245 92.2609 38.5179 71.5974C67.1135 36.2024 95.4068 56.1353 118.978 46.1815C123.143 44.4239 127.321 41.5964 131.505 37.256C133.86 34.8152 136.44 32.6813 139.203 30.8383C139.627 30.5544 140.054 30.2774 140.487 30.0085C142.14 28.9779 143.856 28.0466 145.623 27.2088C146.81 26.6467 148.018 26.1274 149.25 25.6496H149.251C151.205 24.8914 153.213 24.237 155.263 23.6842C158.174 22.8983 161.173 22.3132 164.23 21.9174C165.563 21.7431 166.908 21.6069 168.262 21.5042C194.599 19.5158 224.237 30.6986 239.533 47.0436C242.612 50.335 256.615 67.3643 245.577 90.7722C238.607 105.551 267.804 119.665 278.179 136.542C304.556 179.449 278.59 208.44 278.35 209Z" fill="#EBF3FA"/>
<g opacity="0.8">
<path opacity="0.8" d="M213.482 101.692C212.726 103.771 211.8 105.741 210.723 107.588C208.137 112.02 204.688 115.747 200.676 118.628C191.355 125.325 178.999 127.45 167.403 123.229C153.608 118.208 144.748 105.615 143.804 91.8389C143.679 90.0232 143.691 88.1876 143.85 86.3459C144.112 83.2533 144.783 80.1433 145.892 77.089C146.789 74.6182 147.929 72.3043 149.273 70.1671C149.288 70.1424 149.304 70.1189 149.319 70.0942C153.052 64.1908 158.353 59.6334 164.451 56.7769C166.181 55.9661 167.976 55.2924 169.818 54.7646C170.695 54.5125 171.586 54.2937 172.483 54.1107C178.774 52.8141 185.491 53.1911 191.973 55.5507C192.832 55.8635 193.673 56.2059 194.492 56.5767C195.65 57.0971 196.767 57.6743 197.843 58.3022C202.372 60.9461 206.161 64.4949 209.067 68.6258H209.069C210.879 71.198 212.345 73.994 213.43 76.9407C214 78.4883 214.465 80.0754 214.82 81.6934C215.041 82.7007 215.218 83.7168 215.353 84.7452C215.676 87.2136 215.743 89.7314 215.541 92.2629C215.286 95.4099 214.611 98.5792 213.482 101.692Z" fill="#D7E5FF"/>
<g opacity="0.8">
<path opacity="0.8" d="M173.704 70.0645C171.58 71.7122 172.143 76.1212 168.464 73.6367C164.786 71.1522 162.477 69.8 161.435 71.9693C160.392 74.1385 163.652 75.3252 162.794 77.6885C161.936 80.0519 160.191 80.3015 158.352 78.3609C156.51 76.4203 156.457 74.5526 153.477 74.6144C150.496 74.6762 149.224 73.4488 149.37 71.2079C149.395 70.8136 149.355 70.4724 149.272 70.1683C149.287 70.1436 149.303 70.1201 149.318 70.0954C153.051 64.192 158.353 59.6346 164.451 56.7781C166.18 55.9673 167.975 55.2936 169.817 54.7658C170.695 54.5137 171.586 54.2949 172.482 54.1119C173.522 54.5347 174.636 55.3925 175.226 57.1131C176.524 60.8991 178.628 60.0079 176.841 63.1797C175.052 66.3502 175.789 67.1289 177.74 67.711C179.691 68.2932 181.939 69.1115 181.633 70.6566C181.326 72.2016 175.829 68.4168 173.704 70.0645Z" fill="#AEC3FF"/>
<path opacity="0.8" d="M213.481 101.692C212.726 103.771 211.8 105.741 210.722 107.588C208.136 112.02 204.687 115.747 200.675 118.628C199.675 118.597 198.766 118.257 197.999 117.572C194.397 114.35 199.171 110.929 201.684 109.262C204.197 107.597 199.531 107.045 197.178 103.8C194.825 100.556 200.335 96.1577 196.794 95.9204C193.254 95.6831 188.948 95.4532 188.227 91.656C187.506 87.8588 191.231 88.64 190.579 85.4411C189.927 82.2422 193.007 81.6427 196.302 82.5561C199.596 83.4683 200.003 81.037 204.086 82.1408C208.169 83.2446 206.247 88.2778 210.753 89.5361C215.259 90.7945 214.693 91.7351 214.693 91.7351C215.012 91.8414 215.295 92.0194 215.539 92.2604C215.286 95.4099 214.611 98.5792 213.481 101.692Z" fill="#AEC3FF"/>
<path opacity="0.8" d="M215.352 84.7439C211.062 85.1925 211.352 79.8305 207.711 80.1494C204.039 80.4696 205.61 77.8553 203.793 75.1558C201.973 72.4562 195.844 73.9197 197.09 71.1868C198.335 68.4563 201.759 70.5922 203.362 68.6294C204.966 66.6653 208.358 68.5367 208.358 68.5367C208.59 68.533 208.827 68.5626 209.066 68.6257C209.066 68.6257 209.066 68.6244 209.068 68.6257C210.878 71.1979 212.344 73.9939 213.429 76.9406C213.999 78.4882 214.464 80.0753 214.819 81.6933C215.038 82.6994 215.217 83.7167 215.352 84.7439Z" fill="#AEC3FF"/>
<path opacity="0.8" d="M188.17 63.8632C188.17 63.8632 191.082 61.799 188.344 59.8794C185.605 57.9611 185.274 59.0475 183.006 57.9363C180.738 56.8251 179.146 58.317 180.192 60.9585C181.236 63.5999 181.278 67.9545 183.621 66.4948C185.963 65.035 186.216 63.375 188.17 63.8632Z" fill="#AEC3FF"/>
</g>
</g>
<path d="M20.0482 208.077H32.59C33.2615 207.505 32.1246 206.209 30.9371 206.122C30.4211 206.083 29.7681 206.192 29.0225 206.349C28.8497 204.053 27.8646 193.735 24.1502 194.15C19.9742 194.615 24.1502 198.694 25.3303 201.109C26.2055 202.897 27.1277 205.464 27.5486 206.675C27.2091 206.748 26.8586 206.821 26.4993 206.886C25.9463 205.184 23.8861 199.46 21.2666 199.794C18.1916 200.184 19.4273 202.48 21.6073 203.842C23.2059 204.844 25.1699 206.268 26.1031 206.955C25.3131 207.085 24.4872 207.172 23.6503 207.152C21.5036 207.103 20.4544 207.737 20.0482 208.077Z" fill="#A8D29F"/>
<path d="M219.642 208.077H207.992C207.368 207.546 208.424 206.342 209.528 206.261C210.007 206.225 210.613 206.325 211.306 206.471C211.466 204.339 212.381 194.754 215.831 195.14C219.711 195.571 215.831 199.361 214.735 201.605C213.923 203.266 213.066 205.649 212.673 206.774C212.988 206.842 213.314 206.909 213.647 206.97C214.162 205.389 216.074 200.072 218.507 200.382C221.364 200.746 220.216 202.877 218.191 204.142C216.706 205.073 214.882 206.396 214.015 207.035C214.75 207.155 215.516 207.236 216.294 207.218C218.29 207.172 219.264 207.76 219.642 208.077Z" fill="#A8D29F"/>
<path d="M227.905 131.497C227.905 131.497 228.183 128.731 226.739 128.827C225.295 128.921 224.912 129.584 225.074 130.117C225.235 130.648 226.641 132.407 226.641 132.407L227.905 131.497Z" fill="#FFB27D"/>
<path d="M250.413 137.039C250.413 137.039 248.814 138.921 245.376 141.091C245.051 141.297 244.709 141.505 244.351 141.714C243.015 142.493 241.449 143.291 239.64 144.035C239.441 144.117 239.208 144.207 238.944 144.303C236.883 145.048 233.092 146.104 230.743 146.199C230.539 146.208 230.345 146.208 230.165 146.201C226.589 146.056 226.153 132.159 226.153 132.159C226.153 132.159 226.551 130.769 228.388 131.119C228.388 131.119 231.179 138.968 232.178 139.608C233.065 140.176 238.17 132.429 242.564 131.887C245.522 131.518 250.413 137.039 250.413 137.039Z" fill="#739AF0"/>
<path d="M240.807 204.809C240.807 204.809 241.072 207.868 240.425 208.187L232.16 208.169C232.16 208.169 232.16 207.214 233.488 207.002C234.816 206.79 237.148 206.011 237.542 204.278C237.936 202.545 240.807 204.809 240.807 204.809Z" fill="#1C3154"/>
<path d="M234.738 167.782C234.779 169.783 234.875 171.847 235.063 173.701C235.956 182.501 236.27 193.133 236.398 195.183C236.621 198.741 237.323 204.426 237.323 204.426C237.323 204.426 238.715 205.749 241.429 205.118C241.429 205.118 243.678 196.931 244.18 188.31C244.187 188.168 244.195 188.026 244.202 187.884C244.26 186.743 244.321 185.441 244.384 184.036C244.797 174.624 245.247 160.64 245.247 160.64L234.875 158.202C234.875 158.2 234.637 162.796 234.738 167.782Z" fill="#2A4E96"/>
<path d="M234.738 167.782C237.366 172.323 242.376 180.69 244.384 184.033C244.797 174.621 245.247 160.638 245.247 160.638L234.875 158.199C234.875 158.2 234.637 162.796 234.738 167.782Z" fill="#233862"/>
<path d="M238.944 144.301C236.883 145.047 233.093 146.103 230.744 146.198C231.103 146.131 233.72 145.611 234.686 144.443C235.725 143.185 237.474 139.77 238.866 141.164C239.522 141.819 239.329 143.115 238.944 144.301Z" fill="#6385DB"/>
<path d="M256.372 166.303C256.372 166.303 257.016 168.831 256.91 169.393C256.805 169.955 256.175 171.857 255.783 172.329C255.392 172.801 255.376 170.278 255.115 169.881C254.854 169.485 254.995 170.823 254.786 170.933C254.577 171.042 254.228 169.919 254.074 169.52C253.919 169.122 254.63 167.735 254.697 166.741C254.764 165.747 256.372 166.303 256.372 166.303Z" fill="#FFB27D"/>
<path d="M261.397 201.332C261.397 201.332 262.868 202.676 262.582 203.631C262.295 204.587 260.967 205.223 260.788 206.39C260.608 207.558 259.891 208.194 259.245 208.194C258.599 208.194 256.166 208.194 256.166 208.194C256.166 208.194 255.69 207.372 256.839 207.124C257.987 206.877 258.42 205.505 258.348 204.231C258.277 202.957 258.456 201.26 258.456 201.26L260.895 200.694L261.397 201.332Z" fill="#1C3154"/>
<path d="M236.511 160.851C236.511 160.851 246.22 181.652 251.387 190.778C256.553 199.905 258.168 202.452 258.168 202.452C258.168 202.452 261.128 201.285 261.397 200.489C261.397 200.489 259.422 182.869 255.961 178.574C254.006 176.148 251.709 168.863 251.602 166.317C251.494 163.77 249.225 157.69 249.225 157.69L236.511 160.851Z" fill="#2A4E96"/>
<path d="M234.7 159.769C234.7 159.769 237.862 163.176 243.234 164.205C245.591 164.656 250.377 165.093 251.564 163.412C251.842 163.017 251.845 162.433 251.783 161.521C251.623 159.15 251.028 154.566 253.717 145.354C253.968 144.497 254.136 143.675 254.233 142.891C254.821 138.178 254.756 134.622 250.674 132.721C244.555 129.874 242.044 132.216 242.044 132.216C242.044 132.216 238.79 133.739 237.303 138.176C234.331 147.052 234.7 159.769 234.7 159.769Z" fill="#739AF0"/>
<path d="M247 131.94C245.971 132.673 244.158 133.105 242.431 132.24C242.297 132.173 242.315 131.258 242.348 130.359C242.381 129.478 242.464 128.611 242.464 128.611L244.641 127.18L246.718 125.816C246.468 130.509 247.465 131.607 247 131.94Z" fill="#FFB27D"/>
<path d="M246.352 127.753C246.352 127.753 244.939 129.876 242.348 130.359C242.381 129.478 242.475 128.506 242.475 128.506L244.641 127.181L246.352 127.753Z" fill="#ED985F"/>
<path d="M240.515 128.06C240.515 128.06 245.781 130.029 246.953 126.779C248.126 123.529 249.594 121.595 246.281 120.201C242.967 118.808 241.863 119.813 241.204 120.802C240.545 121.791 239.174 127.464 240.515 128.06Z" fill="#FFB27D"/>
<path d="M250.233 120.566C250.293 120.519 250.416 120.495 250.673 120.532C250.673 120.532 250.495 120.365 250.225 120.304C250.241 119.94 250.177 119.278 249.601 119.007C249.601 119.007 249.893 119.246 249.862 119.63C249.302 118.768 247.898 117.944 243.663 117.448C238.079 116.796 239.196 120.678 239.825 121.239C240.454 121.8 242.472 121.003 243.778 121.37C245.083 121.738 244.957 123.706 245.354 124.058C245.752 124.411 245.667 123.909 246.33 123.755C246.992 123.6 246.851 124.621 246.546 125.243C246.241 125.864 246.906 126.897 246.906 126.897C246.906 126.897 246.906 126.897 247.931 126.153C248.956 125.409 250.513 121.706 250.292 120.807C250.271 120.728 250.252 120.647 250.233 120.566Z" fill="#2C3A64"/>
<path d="M251.785 161.522C251.625 159.151 251.029 154.567 253.718 145.355C253.969 144.498 254.137 143.676 254.235 142.893C252.237 142.233 248.597 143.7 248.597 143.7C248.597 143.7 247.741 155.877 251.785 161.522Z" fill="#6385DB"/>
<path d="M251.776 133.338C251.776 133.338 254.234 134.233 255.803 140.751C256.839 145.057 258.747 151.387 258.962 153.376C259.177 155.365 256.781 167.01 256.781 167.01C256.781 167.01 256.443 167.256 255.615 167.09C254.822 166.932 254.454 166.395 254.454 166.395C254.454 166.395 253.882 158.634 254.029 154.969C254.09 153.447 246.99 143.819 243.157 142.578C241.653 142.091 251.776 133.338 251.776 133.338Z" fill="#739AF0"/>
<path d="M217.389 124.901C217.389 124.901 224.494 124.699 232.694 126.211L233.551 124.049L234.49 121.681C234.49 121.681 226.259 118.133 221.311 113.191L217.389 124.901Z" fill="#AEC3FF"/>
<path d="M221.423 113.076L217.343 125.134C216.746 124.957 216.421 124.315 216.628 123.729L220.219 113.597C220.393 113.107 220.947 112.867 221.423 113.076Z" fill="#F99746"/>
<path d="M225.318 133.876C226.111 134.035 226.889 133.515 227.049 132.721L228.453 125.683C228.611 124.889 228.092 124.11 227.3 123.95C226.506 123.792 225.728 124.312 225.569 125.105L224.164 132.143C224.006 132.938 224.525 133.718 225.318 133.876Z" fill="#F99746"/>
<path d="M217.389 124.901C217.389 124.901 224.494 124.699 232.694 126.211L233.551 124.049C225.846 122.473 217.389 124.901 217.389 124.901Z" fill="#739AF0"/>
<path d="M230.425 125.776L232.645 126.167C232.612 126.169 234.708 126.576 235.395 124.715C235.458 124.588 235.499 124.463 235.527 124.314C236.061 121.995 234.79 121.568 234.79 121.568L231.933 120.453L231.026 123.67C231.026 123.67 231.026 123.67 231.026 123.681L230.425 125.776Z" fill="#F99746"/>
<path d="M230.425 125.776L232.645 126.167C232.612 126.169 234.708 126.576 235.395 124.715C234.139 123.8 231.024 123.669 231.024 123.669C231.024 123.669 231.024 123.669 231.024 123.68L230.425 125.776Z" fill="#ED7D2B"/>
<path d="M225.507 127.061C225.507 127.061 226.594 127.495 226.394 127.974C226.195 128.453 224.814 129.111 224.596 128.734C224.378 128.356 224.825 126.658 225.507 127.061Z" fill="#FFB27D"/>
<path d="M227.929 131.061C227.929 131.061 228.134 129.948 228.146 129.437C228.159 128.926 228.219 128.509 228.099 128.494C227.979 128.479 227.892 128.573 227.843 128.738C227.794 128.902 227.606 129.921 227.606 129.921L227.701 130.905L227.929 131.061Z" fill="#FFB27D"/>
<path d="M120.721 130.457L114.577 203.607C114.577 203.607 113.934 208.041 117.227 208.049C122.643 208.062 144.185 208.049 144.185 208.049C144.185 208.049 140.109 207.126 140.158 205.049C140.216 202.602 147.339 129.765 147.339 129.765L120.721 130.457Z" fill="#7599EA"/>
<path d="M146.211 206.752C145.146 206.755 124.291 206.79 119.016 206.722C116.718 206.693 116.314 204.675 116.296 203.37C116.286 202.744 116.366 202.281 116.366 202.281L116.525 200.38L116.933 195.534L117.292 191.253L117.755 185.751L118.144 181.107L122.51 129.128L149.128 128.436C149.128 128.436 146.128 158.919 144.006 181.106C143.769 183.578 143.544 185.949 143.336 188.161C143.268 188.868 143.204 189.558 143.14 190.23C142.943 192.329 142.763 194.257 142.606 195.959C142.524 196.857 142.447 197.69 142.379 198.454C142.109 201.446 141.95 203.357 141.947 203.721C141.946 203.932 141.964 204.13 141.999 204.313C142.436 206.645 145.811 206.752 146.211 206.752Z" fill="#90AFF4"/>
<path d="M56.0776 90.6511L71.0426 150.845L73.0917 159.089L80.0625 187.125H209.56L183.868 90.6511H56.0776Z" fill="#AEC3FF"/>
<path d="M56.0785 90.6511L54.0034 91.3433L77.3057 189.219L80.0634 187.125L56.0785 90.6511Z" fill="#90AFF4"/>
<path d="M77.3066 189.219H206.007L209.561 187.125H80.0644L77.3066 189.219Z" fill="#7599EA"/>
<path d="M122.5 208.077H150.366V206.751H122.5V208.077Z" fill="#AEC3FF"/>
<path d="M143.283 189.218L143.139 190.233L116.933 195.533L117.292 191.253L117.463 189.218H143.283Z" fill="#5888DD"/>
<path opacity="0.4" d="M146.211 206.751C145.146 206.755 124.292 206.79 119.017 206.722C116.719 206.693 116.315 204.675 116.296 203.37L142.379 198.456C142.108 201.449 141.949 203.36 141.947 203.723C141.945 203.935 141.964 204.132 141.998 204.315C142.437 206.645 145.812 206.751 146.211 206.751Z" fill="#5888DD"/>
<path d="M56.0776 90.6511H183.868L204.603 168.185H75.3544L56.0776 90.6511Z" fill="#AEC3FF"/>
<path d="M198.576 164.826H78.9241L74.6493 147.77L72.9952 141.171L72.32 138.48L67.9254 120.953L67.6983 120.04L65.3751 110.775L64.3357 106.63L63.4494 103.093L61.3706 94.8042H179.298L181.58 103.093L182.553 106.63L183.695 110.775L191.214 138.085V138.086L191.851 140.4L192.147 141.474L197.338 160.329L198.576 164.826Z" fill="#739AF0"/>
<path d="M181.58 103.094H63.4491L61.3716 94.8042H179.298L181.58 103.094Z" fill="#607CF4"/>
<path d="M66.2496 98.5508C66.1076 97.9785 66.4545 97.515 67.026 97.515C67.5975 97.515 68.1765 97.9785 68.3185 98.5508C68.4604 99.1231 68.1135 99.5866 67.542 99.5866C66.9705 99.5866 66.3915 99.1231 66.2496 98.5508Z" fill="#E9F3FE"/>
<path d="M69.689 98.5508C69.547 97.9785 69.8939 97.515 70.4655 97.515C71.037 97.515 71.6159 97.9785 71.7579 98.5508C71.8999 99.1231 71.553 99.5866 70.9814 99.5866C70.4099 99.5866 69.831 99.1231 69.689 98.5508Z" fill="#E9F3FE"/>
<path d="M73.3907 98.5508C73.2487 97.9785 73.5956 97.515 74.1671 97.515C74.7387 97.515 75.3176 97.9785 75.4596 98.5508C75.6015 99.1231 75.2546 99.5866 74.6831 99.5866C74.1128 99.5866 73.5339 99.1231 73.3907 98.5508Z" fill="#E9F3FE"/>
<path d="M163.884 46.127C166.57 42.9427 170.711 36.5465 173.499 33.2715C174.073 32.5973 173.596 31.5569 172.716 31.5569H167.642L172.428 20.6293C172.632 20.1627 172.003 19.791 171.7 20.1994L160.128 35.8383C159.791 36.2945 160.16 36.9369 160.72 36.867L166.464 36.1526L163.047 45.632C162.859 46.1547 163.528 46.5499 163.884 46.127Z" fill="#F77D48"/>
<path d="M112.825 81.2397C113.912 75.6515 114.6 65.2736 115.749 59.5086C115.986 58.322 114.721 57.4098 113.668 58.0031L107.599 61.4245L106.034 45.2371C105.967 44.5461 104.966 44.5301 104.877 45.2185L101.469 71.5701C101.37 72.3389 102.239 72.8519 102.863 72.3908L109.256 67.6703L111.491 81.2175C111.616 81.9641 112.68 81.9814 112.825 81.2397Z" fill="#AEC3FF"/>
<path d="M203.803 166.476L99.8357 175.247C91.9416 175.913 86.2287 167.854 89.4604 160.612L133.507 61.9042C136.849 54.4162 147.12 53.5497 151.666 60.3728L211.586 150.31C215.983 156.908 211.697 165.81 203.803 166.476Z" fill="#E6EFFF"/>
<path d="M204.134 170.414L100.167 179.185C95.0541 179.616 90.2275 177.373 87.2574 173.183C84.2874 168.993 83.764 163.691 85.8576 159L129.904 60.2924C132.068 55.4421 136.517 52.2803 141.804 51.8341C147.091 51.3879 152.006 53.7599 154.95 58.18L214.87 148.117C217.718 152.391 218.088 157.706 215.86 162.334C213.629 166.962 209.247 169.983 204.134 170.414ZM142.466 59.709C140.086 59.9092 138.084 61.3332 137.11 63.5161L93.063 162.224C92.1211 164.335 92.3569 166.722 93.6937 168.607C95.0306 170.493 97.2032 171.503 99.5042 171.309L203.471 162.538C205.772 162.344 207.746 160.984 208.748 158.901C209.751 156.819 209.585 154.426 208.303 152.502L148.383 62.5655C147.058 60.5755 144.846 59.5075 142.466 59.709Z" fill="#F77D48"/>
<path d="M140.03 151.375C139.918 150.034 140.051 148.773 140.435 147.594C140.818 146.416 141.41 145.373 142.214 144.465C143.017 143.559 144.012 142.819 145.201 142.248C146.389 141.678 147.753 141.326 149.292 141.196C150.83 141.066 152.245 141.184 153.531 141.545C154.818 141.907 155.934 142.469 156.877 143.228C157.822 143.988 158.58 144.918 159.154 146.014C159.728 147.113 160.071 148.332 160.185 149.674C160.297 151.015 160.161 152.266 159.777 153.424C159.393 154.584 158.799 155.616 157.996 156.523C157.192 157.43 156.186 158.171 154.978 158.743C153.769 159.315 152.395 159.668 150.856 159.797C149.317 159.927 147.913 159.81 146.648 159.446C145.381 159.083 144.276 158.521 143.332 157.76C142.389 157.002 141.63 156.083 141.058 155.004C140.486 153.926 140.142 152.716 140.03 151.375ZM156.103 132.541L141.127 133.804L134.695 82.7466L153.914 81.1249L156.103 132.541Z" fill="#F77D48"/>
<path d="M80.1406 144.506C80.1406 144.506 80.4268 143.861 80.6122 143.556C80.7976 143.251 81.5901 142.356 81.7246 142.558C81.859 142.761 82.3989 144.124 82.1127 144.506C81.8265 144.888 82.1311 145.551 80.7065 145.954L80.1406 144.506Z" fill="#FFB27D"/>
<path d="M64.3052 140.435C64.3052 140.435 71.6003 146.532 74.4439 145.968C76.6685 145.526 80.1844 144.41 80.1844 144.41C80.1844 144.41 81.1124 145.294 80.85 146.353C80.85 146.353 76.3704 150.574 73.1787 150.601C68.1896 150.643 65.837 148.126 65.837 148.126L64.3052 140.435Z" fill="#ED7D2B"/>
<path d="M51.5122 204.748C51.5122 204.748 51.7236 208.168 52.3849 208.217C52.4727 208.224 55.737 208.224 55.737 208.224L59.9044 208.2C59.9044 208.2 59.8773 207.195 58.6588 206.982C57.4413 206.769 55.402 205.912 54.6638 204.3C53.8886 202.605 51.5122 204.748 51.5122 204.748Z" fill="#113C68"/>
<path d="M51.272 204.985C51.272 204.985 52.5383 205.41 53.5281 205.41C54.6317 205.41 55.6335 205.109 55.6335 205.109C55.6335 205.109 55.872 202.8 57.1838 197.712C57.8722 195.045 58.8544 191.616 60.2518 187.355C64.1167 175.579 65.2919 168.69 65.3993 168.037C65.4047 168.003 65.4068 167.986 65.4068 167.986L65.3938 167.981L53.5107 162.757C53.5107 162.757 54.9797 178.987 53.1053 185.217C52.8429 186.088 52.6185 187.103 52.4255 188.202C51.2449 194.967 51.272 204.985 51.272 204.985Z" fill="#2A4E96"/>
<path d="M57.1839 197.711C57.8724 195.044 58.8546 191.615 60.252 187.354C64.1169 175.578 65.2921 168.689 65.3994 168.036C65.3984 168.017 65.3973 167.998 65.3951 167.979L53.512 162.755C53.512 162.755 54.981 178.985 53.1066 185.215C52.8453 186.086 57.1839 197.711 57.1839 197.711Z" fill="#233862"/>
<path d="M60.792 204.748C60.792 204.748 61.0034 208.168 61.6647 208.217C61.7525 208.224 65.0168 208.224 65.0168 208.224L69.1842 208.2C69.1842 208.2 69.1571 207.195 67.9385 206.982C66.7211 206.769 64.6818 205.912 63.9435 204.3C63.1673 202.605 60.792 204.748 60.792 204.748Z" fill="#15447C"/>
<path d="M67.5302 163.138C67.5302 163.138 67.6841 173.655 65.8671 186.569C64.0501 199.483 64.6659 204.964 64.6659 204.964C64.6659 204.964 63.417 205.369 62.914 205.41C61.6304 205.514 60.3142 205.108 60.3142 205.108C60.3142 205.108 57.7134 192.19 58.4593 185.727C59.2052 179.263 54.8979 163.548 54.8979 163.548L67.5302 163.138Z" fill="#2A4E96"/>
<path d="M59.104 138.526L61.4229 140.049L63.5359 139.451C63.9219 138.9 64.0248 137.836 64.0303 136.915C64.0357 136.001 63.9468 135.226 63.9468 135.226L60.8169 133.843L59.6493 133.328C59.6526 133.346 59.7404 134.287 59.7523 134.425C59.9724 136.867 59.104 138.526 59.104 138.526Z" fill="#FFB27D"/>
<path d="M67.5829 166.062C64.6959 168.853 53.7701 168.384 53.0968 165.308C52.4247 162.233 53.8308 139.13 58.7625 137.679C59.7859 137.378 65.2575 139.149 65.2575 139.149C65.2575 139.149 66.1161 141.398 66.6787 144.26C66.7882 144.817 67.107 150.722 67.3455 156.245C67.4571 158.829 67.5515 161.329 67.5992 163.16C67.6436 164.874 67.6458 166.001 67.5829 166.062Z" fill="#F99746"/>
<path d="M59.9877 134.469C60.623 135.543 62.8498 136.485 64.0304 136.916C64.0358 136.001 63.9469 135.226 63.9469 135.226L60.817 133.843C60.1254 133.834 59.7047 133.989 59.9877 134.469Z" fill="#FCA56B"/>
<path d="M65.1293 135.035C65.1293 135.035 60.087 136.61 59.1558 133.451C58.2245 130.292 56.9463 128.368 60.1261 127.229C63.3058 126.09 64.2902 127.11 64.8572 128.089C65.4242 129.066 66.4173 134.544 65.1293 135.035Z" fill="#FFB27D"/>
<path d="M64.6587 127.783C64.6587 127.783 64.3367 131.46 63.5779 131.3C62.819 131.14 61.9831 130.798 62.0937 131.907C62.2053 133.015 61.3554 134.915 60.2604 134.911C57.9122 134.901 55.3613 128.867 56.0042 127.723C57.8591 124.422 67.3398 123.755 64.6587 127.783Z" fill="#163560"/>
<path d="M63.9152 137.758C63.8501 137.731 60.1619 136.074 59.7304 136.216C59.299 136.359 58.7612 137.679 58.7612 137.679L65.2562 139.149C65.2562 139.149 64.7445 138.109 63.9152 137.758Z" fill="#ED7D2B"/>
<path d="M86.8811 155.651L66.2046 175.144C65.7992 175.527 65.2885 175.648 65.0685 175.415L64.3703 174.672C64.1513 174.439 64.3031 173.935 64.7085 173.553L85.385 154.06C85.7904 153.677 86.3011 153.556 86.5211 153.789L87.2193 154.532C87.4383 154.765 87.2865 155.269 86.8811 155.651Z" fill="#1F4D84"/>
<path d="M75.2777 166.59L66.2046 175.144C65.7992 175.527 65.2885 175.648 65.0685 175.415L64.3703 174.672C64.1513 174.439 64.3031 173.935 64.7085 173.553L73.7816 164.999L75.2777 166.59Z" fill="#739AF0"/>
<path d="M82.1278 148.291C82.9214 150.91 84.3915 153.364 86.5261 155.374C93.0449 161.515 103.302 161.202 109.435 154.675C115.486 148.233 115.262 138.149 108.989 131.983C108.906 131.9 108.821 131.818 108.734 131.737C102.217 125.596 91.9608 125.908 85.8279 132.435C81.7028 136.826 80.4929 142.91 82.1278 148.291ZM86.7603 133.314C90.3292 129.515 95.4148 128.001 100.19 128.829C102.973 129.311 105.649 130.588 107.859 132.67C113.863 138.326 114.151 147.784 108.502 153.797C106.423 156.01 103.83 157.447 101.083 158.099C96.3656 159.217 91.1965 158.017 87.4031 154.443C81.3993 148.786 81.1098 139.328 86.7603 133.314Z" fill="#1F4D84"/>
<g opacity="0.5">
<path opacity="0.5" d="M108.502 153.797C106.423 156.01 103.829 157.447 101.082 158.099C96.3654 159.216 91.1974 158.016 87.403 154.442C81.3991 148.786 81.1107 139.326 86.7601 133.314C90.329 129.515 95.4147 128.001 100.19 128.829C102.973 129.311 105.65 130.588 107.859 132.67C113.863 138.326 114.152 147.785 108.502 153.797Z" fill="#B3CFF9"/>
</g>
<path d="M67.5981 163.16C56.205 155.031 57.1526 144.183 57.1526 144.183C61.3167 146.535 65.4483 151.734 67.3444 156.245C67.4561 158.827 67.5504 161.329 67.5981 163.16Z" fill="#ED7D2B"/>
<path d="M78.845 159.457C79.6483 159.272 80.1882 158.664 80.2999 158.557C80.2999 158.557 80.6425 158.581 80.2435 159.313C80.2099 159.374 80.1362 159.531 80.0798 159.643C80.057 159.688 80.0885 159.742 80.1394 159.745C80.6034 159.781 81.0696 159.596 81.9619 159.783C82.0854 159.809 82.1212 160.104 82.1158 160.23C82.1082 160.443 82.1234 160.683 81.8762 161.01C81.732 161.199 81.3309 161.404 80.4365 161.764C80.0961 161.901 79.1214 161.798 78.2086 161.484L77.479 161.145L77.7056 159.788L77.8888 159.826C78.1815 159.888 78.5414 159.532 78.845 159.457Z" fill="#FFB27D"/>
<path d="M60.6901 139.148C60.6901 139.148 50.4538 141.1 63.7018 155.944C65.8202 158.318 77.2685 161.409 77.2685 161.409C77.2685 161.409 78.4296 160.42 77.8442 159.619C77.8442 159.619 69.9615 153.887 68.228 152.976C67.4474 152.566 65.2001 143.828 63.9284 141.725C62.6556 139.621 60.6901 139.148 60.6901 139.148Z" fill="#F99746"/>
<path d="M80.4185 144.686C80.4185 144.686 80.7535 144.045 80.8185 143.707C80.8835 143.369 81.3053 142.383 81.4787 142.21C81.5481 142.14 81.778 142.23 81.8051 142.529C81.817 142.659 81.753 142.896 81.6403 143.177C81.4571 143.636 81.4874 144.258 81.4234 144.466C81.2662 144.982 80.4185 144.686 80.4185 144.686Z" fill="#FFB27D"/>
<path d="M288.299 209H2.11628C1.92001 209 1.7583 208.839 1.7583 208.641V208.435C1.7583 208.238 1.91878 208.077 2.11628 208.077H288.299C288.496 208.077 288.657 208.237 288.657 208.435V208.641C288.657 208.839 288.496 209 288.299 209Z" fill="#848484"/>
</g>
<defs>
<clipPath id="clip0_2_7494">
<rect width="290" height="209" fill="white"/>
</clipPath>
</defs>
</svg>
