<svg width="19" height="13" viewBox="0 0 19 13" fill="none" xmlns="http://www.w3.org/2000/svg">
<path d="M0.0567551 6.22008C0.0202697 6.30746 0 6.40279 0 6.4997C0 6.59662 0.0202697 6.69115 0.0567551 6.77933C0.0948622 6.8675 0.149185 6.94774 0.217291 7.01447L6.11172 12.7873C6.40117 13.0709 6.87143 13.0709 7.16088 12.7873C7.45033 12.5037 7.45033 12.0438 7.16088 11.7602L2.53209 7.22657H18.2589C18.6684 7.22657 19 6.90087 19 6.4997C19 6.09854 18.6684 5.77284 18.2589 5.77284H2.53128L7.16007 1.24163C7.44952 0.958035 7.44952 0.496494 7.16007 0.212897C7.01575 0.0707006 6.82521 0 6.6363 0C6.44576 0 6.25604 0.0707007 6.11091 0.212102L0.21567 5.98573C0.201886 5.99924 0.197832 6.01751 0.18486 6.03181C0.134591 6.08821 0.0875651 6.14858 0.0567551 6.22008Z" fill="#333333"/>
</svg>
