<svg width="29" height="29" viewBox="0 0 29 29" fill="none" xmlns="http://www.w3.org/2000/svg">
<path d="M28.9591 11.0103C28.9133 10.8596 28.8284 10.726 28.7123 10.6249C28.5979 10.5219 28.459 10.4551 28.3103 10.4322L19.2764 9.04902L15.2366 0.473126C15.1696 0.331943 15.065 0.211689 14.9375 0.127743C14.8084 0.0437964 14.6613 0 14.5093 0C14.359 0 14.2103 0.0437964 14.0812 0.127743C13.9538 0.211689 13.8492 0.331943 13.7822 0.473126L9.74237 9.04902L0.711725 10.4112C0.558109 10.4303 0.412695 10.4971 0.293398 10.6001C0.1741 10.705 0.0842093 10.8424 0.0384515 10.997C-0.00894061 11.1534 -0.0122402 11.3193 0.0269809 11.4758C0.0678361 11.6341 0.149579 11.7754 0.263973 11.886L6.79922 18.5827L5.25817 28.0018C5.23202 28.1601 5.24835 28.3204 5.30555 28.4673C5.36274 28.6162 5.45748 28.744 5.58004 28.8375C5.70261 28.931 5.84808 28.9863 6.00007 28.9978C6.15041 29.0092 6.30234 28.9768 6.43635 28.9024L14.5093 24.4456L22.5856 28.8985C22.7196 28.9729 22.8716 29.0054 23.0236 28.9939C23.174 28.9825 23.3194 28.9272 23.4419 28.8337C23.5645 28.7402 23.6593 28.6124 23.7165 28.4655C23.7737 28.3167 23.7901 28.1564 23.7639 27.9999L22.2196 18.5827L28.7548 11.886C28.8627 11.7735 28.9395 11.6342 28.9771 11.4778C29.013 11.3232 29.0065 11.1611 28.9591 11.0103Z" fill="#FBCB22"/>
</svg>
