<svg width="16" height="16" viewBox="0 0 24 24" fill="none" xmlns="http://www.w3.org/2000/svg">
<g clip-path="url(#clip0)">
<path d="M14.324 11.387C13.777 10.115 12.251 9.263 10.914 9.486C9.577 9.708 8.935 10.919 9.482 12.192C10.06 13.535 11.716 14.394 13.08 14.055C14.289 13.756 14.846 12.599 14.324 11.387ZM12.641 12.971L12.761 13.238L12.508 13.29L12.395 13.036C12.133 13.083 11.834 13.077 11.559 13.005L11.483 12.554C11.71 12.589 11.992 12.621 12.208 12.577L12.353 12.53C12.611 12.404 12.532 12.081 12.149 12.005C11.865 11.942 11.111 11.988 10.83 11.363C10.672 11.01 10.789 10.641 11.244 10.472L11.119 10.194L11.371 10.142L11.491 10.408C11.676 10.377 11.892 10.366 12.146 10.388L12.248 10.834C12.051 10.809 11.838 10.787 11.652 10.825L11.582 10.843C11.223 10.938 11.338 11.279 11.657 11.362C12.184 11.484 12.813 11.523 13.061 12.074C13.26 12.519 13.027 12.824 12.641 12.971ZM19.03 7.436L21.781 13.44C17.052 15.963 10.553 13.243 4.885 16.381L2.149 10.409C2.889 9.894 3.711 9.533 4.667 9.296C8.025 8.463 12.21 9.375 16.519 8.306C17.404 8.086 18.237 7.798 19.03 7.436ZM19.839 5C13.01 9.423 5.463 4.649 0 9.92L4.161 19C10.015 14.038 17.996 18.736 24 14.08L19.839 5Z" fill="#8E8E8E"/>
</g>
<defs>
<clipPath id="clip0">
<rect width="24" height="24" fill="white"/>
</clipPath>
</defs>
</svg>
