<svg width="12" height="20" viewBox="0 0 12 20" fill="none" xmlns="http://www.w3.org/2000/svg">
<path d="M4.16849 10L11.5451 17.4221C11.6874 17.5604 11.8009 17.7258 11.879 17.9088C11.9571 18.0917 11.9982 18.2885 11.9999 18.4876C12.0017 18.6867 11.964 18.8841 11.889 19.0684C11.8141 19.2526 11.7034 19.42 11.5635 19.5608C11.4236 19.7016 11.2572 19.813 11.0741 19.8883C10.8909 19.9637 10.6947 20.0017 10.4968 19.9999C10.299 19.9982 10.1034 19.9569 9.92161 19.8783C9.7398 19.7997 9.57536 19.6855 9.43789 19.5422L1.00774 11.0601C0.728372 10.7789 0.571428 10.3976 0.571428 10C0.571428 9.60241 0.728372 9.2211 1.00774 8.93992L9.43789 0.457752C9.57536 0.314543 9.7398 0.200315 9.92161 0.121732C10.1034 0.0431497 10.299 0.00178666 10.4968 5.66129e-05C10.6947 -0.00167343 10.8909 0.0362642 11.0741 0.111656C11.2572 0.187048 11.4236 0.298383 11.5635 0.439167C11.7034 0.579951 11.8141 0.747363 11.889 0.931635C11.964 1.11591 12.0017 1.31335 11.9999 1.51244C11.9982 1.71153 11.9571 1.90828 11.879 2.09122C11.8009 2.27415 11.6874 2.4396 11.5451 2.57792L4.16849 10Z" fill="#1E45DB"/>
</svg>
