<svg width="217" height="40" viewBox="0 0 217 40" fill="none" xmlns="http://www.w3.org/2000/svg">
<g clip-path="url(#clip0)">
<rect width="216.949" height="40" fill="white"/>
<path d="M16.3836 13.2291V19.4462C15.1504 19.7449 13.8867 19.899 12.6179 19.9055C7.28442 19.9055 3.06263 16.9949 3.06263 10.8411C3.06263 5.26696 6.49264 1.86861 11.6994 1.86861C14.7334 1.81146 17.6033 3.24286 19.3829 5.70085L18.4328 0.86463C16.387 0.309276 14.2784 0.0186935 12.1587 0C3.88925 0 0 5.60267 0 11.3605C0 17.7297 4.50051 21.8121 11.2085 21.8121C13.2056 21.8505 15.1849 21.4312 16.9949 20.5864L19.2309 21.8533V13.2291L20.3932 10.9931H15.0091L16.3836 13.2291Z" fill="#C4C4C4"/>
<path d="M39.6874 0.399048H36.2573L37.4514 2.57171L29.581 19.3829L27.6522 21.5365H33.1029L31.6935 19.6078L34.5439 12.9568H42.1229L44.9733 19.5698L43.7065 21.5365H49.8951L47.9948 19.3195L39.6874 0.399048ZM35.2534 11.3003L38.3223 4.16478L41.4134 11.3003H35.2534Z" fill="#C4C4C4"/>
<path d="M62.2883 16.599V2.63505L63.6596 0.399048H58.0316L59.4093 2.63505V19.2309L58.0316 21.5365H71.8404L73.0344 18.2617C69.5334 19.0242 65.9825 19.5354 62.4086 19.7915C62.3168 18.8635 62.2883 17.8215 62.2883 16.599Z" fill="#C4C4C4"/>
<path d="M216.889 21.5365L214.989 19.3195L206.694 0.399048H203.264L204.458 2.57171L196.588 19.3829L194.659 21.5365H200.11L198.7 19.6078L201.551 12.9568H209.117L211.967 19.5698L210.701 21.5302L216.889 21.5365ZM202.254 11.3003L205.316 4.16478L208.398 11.3003H202.254Z" fill="#C4C4C4"/>
<path d="M150.614 6.42919C150.614 2.53994 147.446 0.411621 140.966 0.411621H134.315L135.693 2.64762V19.2434L134.322 21.5365H139.924L138.547 19.2403V12.1269L149.448 21.5365H154.044L142.325 12.4436C147.795 12.1269 150.614 9.81803 150.614 6.42919ZM138.547 11.0849V5.32702C138.547 4.2882 138.578 3.11003 138.67 2.0522H141.027C145.559 2.0522 147.579 3.39824 147.579 6.55271C147.589 11.1166 142.864 11.0849 139.709 11.0849H138.547Z" fill="#C4C4C4"/>
<path d="M184.613 2.63505L185.87 0.399048H181.553L181.674 2.23599L174.354 17.3337L166.18 0.399048H162.778L164.403 3.6137L162.962 19.139L160.913 21.527H166.576L165.078 19.3544L165.813 6.42928L173.711 22.1415H174.11L181.889 5.69451L182.776 19.291L181.246 21.527H187.431L185.838 19.291L184.613 2.63505Z" fill="#C4C4C4"/>
<path d="M80.7621 21.5364H87.9262C96.2557 21.5364 100.421 16.9441 100.421 10.727C100.421 4.35787 96.0119 0.408447 87.9262 0.408447H80.7621L82.1398 2.64445V19.2403L80.7621 21.5364ZM85.0187 5.33652C85.0187 4.35787 85.0504 3.25571 85.1106 2.24539H87.6221C94.2066 2.24539 97.3579 5.41253 97.3579 10.9424C97.3579 16.241 94.3586 19.6393 87.6221 19.6995L85.1422 19.7312C85.0504 18.8127 85.0187 17.8024 85.0187 16.6084V5.33652Z" fill="#C4C4C4"/>
<path d="M113.773 16.5989V11.085C116.836 11.1483 120.817 11.3288 123.572 11.636L123.113 9.46338L113.773 9.6154V5.32709C113.773 4.28827 113.805 3.15443 113.865 2.08394C117.386 2.25949 120.884 2.75132 124.317 3.55349L123.123 0.386353H109.517L110.894 2.62235V19.2182L109.517 21.5365H123.42L124.614 18.23C121.094 19.0609 117.508 19.5834 113.897 19.7914C113.805 18.8635 113.773 17.8215 113.773 16.5989Z" fill="#C4C4C4"/>
<path d="M89.1585 36.6216H92.2433V35.9565H89.1585V34.0784H92.408V33.407H88.4269V39.2219H92.4935V38.5504H89.1585V36.6216Z" fill="#C4C4C4"/>
<path d="M123.465 36.2384C124.041 36.045 124.426 35.5003 124.415 34.8924C124.415 33.9802 123.693 33.2898 122.445 33.2898C121.197 33.2898 120.478 33.9802 120.478 34.8924C120.468 35.5003 120.852 36.045 121.429 36.2384C120.775 36.4045 120.318 36.9953 120.323 37.67C120.323 38.5979 121.08 39.339 122.458 39.339C123.836 39.339 124.596 38.5979 124.596 37.67C124.598 36.9879 124.129 36.3946 123.465 36.2384ZM121.188 34.9335C121.188 34.335 121.603 33.9359 122.433 33.9359C123.262 33.9359 123.68 34.335 123.68 34.9335C123.68 35.5321 123.265 35.9312 122.433 35.9312C121.6 35.9312 121.188 35.5321 121.188 34.9335ZM122.433 38.6834C121.505 38.6834 121.039 38.2337 121.039 37.6256C121.039 37.0175 121.505 36.571 122.433 36.571C123.36 36.571 123.829 37.0207 123.829 37.6256C123.829 38.2305 123.364 38.6834 122.433 38.6834Z" fill="#C4C4C4"/>
<path d="M109.928 34.2621V34.9684L111.474 34.1798V39.2219H112.19V33.407H111.601L109.928 34.2621Z" fill="#C4C4C4"/>
<path d="M116.513 33.2898C115.246 33.2898 114.353 34.1133 114.353 35.3168C114.335 35.8484 114.537 36.3638 114.911 36.7423C115.285 37.1208 115.797 37.3291 116.329 37.3184C116.733 37.3261 117.128 37.1978 117.45 36.9542L115.655 39.2219H116.529L117.777 37.5781C118.301 36.9545 118.603 36.1749 118.638 35.3611C118.638 34.0689 117.732 33.2898 116.513 33.2898ZM116.494 36.6881C115.623 36.6881 115.081 36.1719 115.081 35.3168C115.055 34.9373 115.196 34.5653 115.468 34.2994C115.74 34.0334 116.115 33.9005 116.494 33.9359C117.368 33.9359 117.91 34.4616 117.91 35.3168C117.91 36.1719 117.368 36.6881 116.494 36.6881Z" fill="#C4C4C4"/>
<path d="M97.1838 36.0579L96.2337 35.833C95.4609 35.6493 95.1853 35.3675 95.1853 34.9177C95.1853 34.3128 95.6857 33.9676 96.5155 33.9676C97.2313 33.9676 97.7824 34.2336 98.0706 34.715L98.6439 34.3667C98.362 33.7522 97.5892 33.3025 96.5314 33.3025C95.236 33.3025 94.4379 33.9834 94.4379 34.9399C94.4379 35.7285 94.9858 36.2353 96.0595 36.4918L97.0096 36.7167C97.7349 36.8909 98.0421 37.1917 98.0421 37.6668C98.0421 38.2812 97.5164 38.6898 96.6359 38.6898C95.8918 38.7402 95.1919 38.3326 94.8686 37.6605L94.2764 37.9994C94.5931 38.8387 95.4419 39.3549 96.6296 39.3549C98.0073 39.3549 98.7991 38.6581 98.7991 37.6415C98.7959 36.837 98.3208 36.3303 97.1838 36.0579Z" fill="#C4C4C4"/>
<path d="M126.201 34.2621V34.9684L127.747 34.1798V39.2219H128.462V33.407H127.873L126.201 34.2621Z" fill="#C4C4C4"/>
<path d="M105.744 38.2907C105.541 38.2895 105.357 38.4116 105.279 38.5997C105.201 38.7878 105.245 39.0042 105.39 39.1472C105.535 39.2902 105.752 39.3313 105.939 39.251C106.126 39.1707 106.246 38.9852 106.242 38.7816C106.247 38.6487 106.196 38.5196 106.102 38.4261C106.007 38.3326 105.877 38.2835 105.744 38.2907Z" fill="#C4C4C4"/>
<path d="M100.136 34.0879H102.08V39.2219H102.812V34.0879H104.757V33.407H100.136V34.0879Z" fill="#C4C4C4"/>
</g>
<defs>
<clipPath id="clip0">
<rect width="216.949" height="40" fill="white"/>
</clipPath>
</defs>
</svg>
