<svg width="122" height="46" viewBox="0 0 122 46" fill="none" xmlns="http://www.w3.org/2000/svg">
<path d="M93.8348 12.2984C94.3114 11.917 94.5497 11.7264 94.788 11.5357C98.1001 8.72326 102.341 9.03311 105.177 12.3699C105.463 12.7036 105.606 12.7274 105.892 12.4414C106.082 12.2269 106.297 12.0601 106.488 11.8455C108.704 9.67663 111.634 9.03311 114.375 10.2487C117.258 11.5357 118.807 13.7999 118.831 16.9699C118.878 23.8103 118.854 30.6269 118.854 37.4673C118.854 39.8984 117.353 41.4238 114.947 41.4238C113.993 41.4238 113.04 41.3523 112.087 41.4476C111.11 41.543 110.824 41.2331 110.824 40.2082C110.872 33.5347 110.848 26.8611 110.848 20.1875C110.848 19.9015 110.848 19.6393 110.848 19.3533C110.824 17.8041 110.205 17.1606 108.727 17.0891C107.393 17.0176 106.464 17.8279 106.321 19.1865C106.297 19.4963 106.321 19.83 106.321 20.1398C106.321 25.9077 106.321 31.6518 106.321 37.4196C106.321 39.9461 104.867 41.4238 102.341 41.3999C101.055 41.3761 99.3153 41.972 98.5766 41.1378C97.9333 40.4227 98.3622 38.7305 98.3622 37.4673C98.3622 31.5564 98.3622 25.6217 98.3622 19.7108C98.3622 17.6134 97.004 16.5409 95.2407 17.2559C94.1446 17.7088 93.7872 18.5906 93.7872 19.7347C93.811 25.2642 93.7872 30.7699 93.7872 36.2994C93.7872 36.7284 93.7872 37.1813 93.7872 37.6103C93.7157 39.9222 92.2383 41.3761 89.9508 41.3999C88.9977 41.4238 88.0446 41.3284 87.0915 41.4238C86.0669 41.5191 85.7571 41.2331 85.7809 40.1367C85.8286 30.7699 85.8048 21.4031 85.8048 12.0124C85.8048 11.6072 85.8286 11.2259 85.8048 10.8207C85.7571 10.2963 85.9715 10.1295 86.4958 10.1295C88.688 10.1533 90.8563 10.1533 93.0485 10.1295C93.5965 10.1295 93.8587 10.2725 93.811 10.8683C93.7633 11.2974 93.811 11.6787 93.8348 12.2984Z" fill="#C4C4C4"/>
<path d="M43.3196 25.2167C43.3196 28.482 43.3196 31.7234 43.3196 34.9887C43.2957 39.2312 41.0797 41.4239 36.8383 41.4478C34.9797 41.4478 33.0973 41.4716 31.2387 41.4478C27.4739 41.4001 24.7098 38.8975 24.5192 35.1317C24.3762 32.4384 24.3524 29.7213 24.4953 27.0281C24.686 23.1669 27.6407 20.4498 31.5485 20.4022C32.5731 20.3783 33.6215 20.4022 34.6461 20.4022C35.6469 20.3783 36.0282 19.8063 36.0043 18.853C36.0043 17.8996 35.5754 17.4706 34.6223 17.5182C33.55 17.5421 32.4778 17.5421 31.4055 17.5182C28.7844 17.4706 27.3309 16.0405 27.3547 13.4664C27.3547 12.4177 26.8782 11.0115 27.5692 10.3918C28.1649 9.86746 29.5231 10.2011 30.5477 10.2011C33.2164 10.1773 35.8614 10.2011 38.5301 10.2011C41.3656 10.2011 43.2957 12.1317 43.3196 14.9918C43.3434 18.3763 43.3196 21.8084 43.3196 25.2167ZM36.0281 30.627C36.0281 30.2219 36.0281 29.8405 36.0281 29.4353C36.0281 27.0042 36.0281 27.0042 33.5977 27.0996C32.3824 27.1473 31.7153 27.7669 31.6914 29.0302C31.6676 30.0312 31.6676 31.0084 31.6914 32.0094C31.7153 33.7255 32.4778 34.1783 34.9559 34.2498C36.7906 34.2975 35.8614 33.0105 36.0281 32.2954C36.1235 31.7711 36.0043 31.1752 36.0281 30.627ZM64.5266 22.6188C64.5266 26.2654 64.5742 29.9359 64.5028 33.5825C64.4551 36.3949 63.7879 38.9452 61.0715 40.4467C59.9754 41.0426 58.784 41.3763 57.5449 41.4001C54.8047 41.4478 52.0645 41.4001 49.3242 41.4478C48.6571 41.4478 48.5141 41.2094 48.5379 40.6136C48.5856 39.6125 48.5141 38.6353 48.5617 37.6343C48.6094 35.7276 50.0629 34.2737 51.9692 34.2022C53.2082 34.1545 54.4235 34.1783 55.6625 34.2022C56.6633 34.2022 57.2113 33.797 57.2113 32.7245C57.2113 31.6281 56.6871 31.2467 55.6863 31.2229C54.0184 31.1752 52.3504 31.4136 50.7063 30.9369C47.8707 30.1027 45.7977 27.7431 45.7262 24.8115C45.5832 20.1638 45.6785 15.5162 45.6547 10.8685C45.6547 10.3441 45.8215 10.1773 46.3457 10.2011C48.2996 10.225 50.2297 10.2488 52.1836 10.2011C53.0414 10.1773 52.9223 10.654 52.9223 11.1783C52.9223 14.682 52.9223 18.1618 52.9223 21.6654C52.9223 23.1908 53.6371 24.0011 54.9715 24.0488C56.5442 24.0965 57.2352 23.4529 57.2352 21.8561C57.2352 18.3286 57.259 14.7773 57.2113 11.2498C57.2113 10.4156 57.4258 10.1773 58.2598 10.2011C59.9992 10.2726 61.7625 10.2965 63.502 10.2011C64.4551 10.1535 64.5981 10.511 64.5742 11.3452C64.5028 15.0871 64.5266 18.853 64.5266 22.6188ZM3.81253 28.0291C3.81253 24.1441 3.81253 20.2353 3.81253 16.3504C3.81253 12.5369 6.14769 10.1535 9.98401 10.2011C12.486 10.225 14.9879 9.91513 17.466 10.3918C20.6352 11.0115 22.6367 13.4664 22.6606 16.7317C22.6844 20.1877 22.6606 23.6436 22.6606 27.0996C22.6606 31.4374 20.111 34.083 15.7742 34.2022C14.4637 34.2498 13.1532 34.226 11.8426 34.2022C11.2469 34.1783 10.9848 34.369 11.0086 35.0125C11.0563 35.9659 11.0325 36.9193 11.0086 37.8726C10.961 39.9224 9.50745 41.4001 7.48206 41.4239C6.29065 41.4478 4.78948 41.9245 4.02698 41.2333C3.31214 40.5897 3.83636 39.0644 3.81253 37.9203C3.7887 34.6312 3.81253 31.3182 3.81253 28.0291ZM11.0086 22.1897C11.0086 22.9524 11.0086 23.6913 11.0086 24.454C11.0086 27.1473 11.0086 27.1473 13.7012 26.9089C14.8688 26.8136 15.4168 26.2416 15.4407 25.0737C15.4645 23.739 15.393 22.3804 15.4645 21.0457C15.6075 17.1846 14.8926 17.5659 11.7473 17.5421C11.1754 17.5421 10.9848 17.7089 10.9848 18.2809C11.0325 19.568 11.0086 20.8789 11.0086 22.1897Z" fill="#C4C4C4"/>
<path d="M71.2699 28.0767C71.2699 24.9068 71.2461 21.713 71.2938 18.5431C71.2938 17.8042 71.127 17.4944 70.3168 17.5182C69.2445 17.5659 67.8149 17.8757 67.2191 17.3514C66.4805 16.6602 67.0524 15.1824 66.957 14.0384C66.957 13.9669 66.957 13.8716 66.957 13.8001C66.957 12.6799 66.5996 11.369 67.0762 10.5348C67.5527 9.70058 69.0063 10.2249 70.0309 9.96276C72.0563 9.4384 73.5813 8.27053 74.8203 6.6498C75.6781 5.55343 76.7504 4.7669 78.1324 4.50473C78.8711 4.36172 79.3238 4.45706 79.2762 5.41043C79.2047 6.74514 79.2762 8.10369 79.2524 9.46224C79.2285 10.0343 79.443 10.2249 80.0149 10.2011C80.968 10.1773 81.9211 10.2249 82.8742 10.1773C83.4461 10.1534 83.6367 10.3679 83.6129 10.94C83.5891 12.8944 83.5891 14.8249 83.6129 16.7793C83.6129 17.3275 83.4699 17.6135 82.8742 17.542C82.7551 17.5182 82.6359 17.542 82.5168 17.542C81.4684 17.6374 80.0149 17.0654 79.4668 17.7804C78.9426 18.4477 79.2762 19.8301 79.2762 20.9027C79.2762 27.3856 79.2524 33.8446 79.3 40.3275C79.3 41.2332 79.0617 41.5192 78.1563 41.4477C77.2984 41.3762 76.4168 41.4477 75.5352 41.4239C72.9617 41.3286 71.2699 39.5887 71.2699 37.0146C71.2699 34.0353 71.2699 31.056 71.2699 28.0767Z" fill="#C4C4C4"/>
</svg>
