<svg width="239" height="84" viewBox="0 0 239 84" fill="none" xmlns="http://www.w3.org/2000/svg">
<rect width="239" height="84" rx="42" fill="black"/>
<path fill-rule="evenodd" clip-rule="evenodd" d="M30.7267 20.6262C30.269 21.1123 30 21.8652 30 22.8421V57.7185C30 58.6955 30.269 59.4483 30.7267 59.9344L30.8431 60.048L50.3139 40.5107V40.0499L30.8431 20.5126L30.7267 20.6262Z" fill="white"/>
<path d="M56.8021 47.0258L50.3139 40.5107V40.0499L56.8053 33.5364L64.6414 38.0029C66.8372 39.256 66.8372 41.3046 64.6414 42.5562L56.9515 46.9406L56.8021 47.0258Z" fill="white"/>
<path fill-rule="evenodd" clip-rule="evenodd" d="M56.8021 47.0258L50.3139 40.5107V40.0499L56.8053 33.5364L64.6414 38.0029C66.8372 39.256 66.8372 41.3046 64.6414 42.5562L56.9515 46.9406L56.8021 47.0258Z" fill="white"/>
<path d="M56.9515 46.9406L50.3139 40.2803L30.7267 59.9344C31.4518 60.703 32.6472 60.7977 33.9936 60.0307L56.9515 46.9406Z" fill="white"/>
<path fill-rule="evenodd" clip-rule="evenodd" d="M56.9515 46.9406L50.3139 40.2803L30.7267 59.9344C31.4518 60.703 32.6472 60.7977 33.9936 60.0307L56.9515 46.9406Z" fill="white"/>
<path d="M56.9515 33.6201L33.9936 20.53C32.6472 19.7629 31.4518 19.8576 30.7267 20.6262L50.3139 40.2803L56.9515 33.6201Z" fill="white"/>
<path fill-rule="evenodd" clip-rule="evenodd" d="M56.9515 33.6201L33.9936 20.53C32.6472 19.7629 31.4518 19.8576 30.7267 20.6262L50.3139 40.2803L56.9515 33.6201Z" fill="white"/>
<path fill-rule="evenodd" clip-rule="evenodd" d="M179.301 57.567H182.236V37.8372H179.301V57.567ZM205.736 44.9441L202.372 53.4982H202.271L198.779 44.9441H195.618L200.854 56.8994L197.869 63.5502H200.931L209 44.9441H205.736ZM189.092 55.3259C188.129 55.3259 186.789 54.8445 186.789 53.6513C186.789 52.1283 188.46 51.5444 189.9 51.5444C191.192 51.5444 191.797 51.8237 192.582 52.2041C192.354 54.0317 190.786 55.3259 189.092 55.3259ZM189.446 44.5132C187.321 44.5132 185.12 45.4523 184.21 47.534L186.814 48.6246C187.371 47.534 188.408 47.1773 189.496 47.1773C191.014 47.1773 192.557 48.0911 192.582 49.7167V49.9188C192.05 49.6141 190.913 49.158 189.521 49.158C186.714 49.158 183.854 50.7063 183.854 53.5993C183.854 56.2397 186.157 57.9411 188.736 57.9411C190.71 57.9411 191.797 57.0525 192.481 56.0108H192.582V57.5339H195.415V49.9708C195.415 46.4671 192.81 44.5132 189.446 44.5132ZM171.307 47.3462H167.133V40.5833H171.307C173.501 40.5833 174.747 42.4062 174.747 43.964C174.747 45.4933 173.501 47.3462 171.307 47.3462ZM171.232 37.8372H164.199V57.567H167.133V50.0924H171.232C174.484 50.0924 177.682 47.7281 177.682 43.964C177.682 40.1998 174.484 37.8372 171.232 37.8372ZM132.883 55.329C130.856 55.329 129.158 53.6261 129.158 51.2871C129.158 48.9229 130.856 47.1931 132.883 47.1931C134.885 47.1931 136.455 48.9229 136.455 51.2871C136.455 53.6261 134.885 55.329 132.883 55.329ZM136.252 46.0489H136.151C135.492 45.2613 134.226 44.5495 132.63 44.5495C129.284 44.5495 126.219 47.4977 126.219 51.2871C126.219 55.0497 129.284 57.9742 132.63 57.9742C134.226 57.9742 135.492 57.2624 136.151 56.448H136.252V57.4139C136.252 59.9833 134.885 61.3564 132.68 61.3564C130.881 61.3564 129.765 60.0591 129.309 58.9653L126.75 60.0338C127.485 61.8141 129.437 64 132.68 64C136.126 64 139.041 61.9656 139.041 57.0083V44.9551H136.252V46.0489ZM141.068 57.567H144.008V37.8356H141.068V57.567ZM148.34 51.0583C148.264 48.4652 150.342 47.1426 151.836 47.1426C153.003 47.1426 153.991 47.7265 154.32 48.5662L148.34 51.0583ZM157.463 48.8203C156.906 47.3209 155.207 44.5495 151.736 44.5495C148.289 44.5495 145.427 47.2689 145.427 51.2619C145.427 55.0244 148.264 57.9742 152.064 57.9742C155.132 57.9742 156.906 56.0929 157.64 54.9992L155.36 53.473C154.6 54.592 153.56 55.329 152.064 55.329C150.57 55.329 149.505 54.6425 148.821 53.2962L157.766 49.5842L157.463 48.8203ZM86.1979 46.6091V49.4563H92.9881C92.7852 51.0583 92.2536 52.2277 91.4435 53.0421C90.4542 54.0333 88.908 55.1254 86.1979 55.1254C82.0172 55.1254 78.7471 51.7448 78.7471 47.5498C78.7471 43.3532 82.0172 39.9726 86.1979 39.9726C88.4534 39.9726 90.1003 40.8627 91.3161 42.0069L93.3184 39.9978C91.6197 38.3706 89.3657 37.1238 86.1979 37.1238C80.471 37.1238 75.6564 41.8033 75.6564 47.5498C75.6564 53.2962 80.471 57.9742 86.1979 57.9742C89.2886 57.9742 91.6197 56.9578 93.4442 55.0497C95.3191 53.1684 95.9027 50.5248 95.9027 48.3878C95.9027 47.7265 95.8523 47.1173 95.7501 46.6091H86.1979ZM103.624 55.329C101.597 55.329 99.8475 53.6513 99.8475 51.2619C99.8475 48.8455 101.597 47.1931 103.624 47.1931C105.65 47.1931 107.399 48.8455 107.399 51.2619C107.399 53.6513 105.65 55.329 103.624 55.329ZM103.624 44.5495C99.923 44.5495 96.9077 47.3714 96.9077 51.2619C96.9077 55.1254 99.923 57.9742 103.624 57.9742C107.323 57.9742 110.339 55.1254 110.339 51.2619C110.339 47.3714 107.323 44.5495 103.624 44.5495ZM118.272 55.329C116.245 55.329 114.496 53.6513 114.496 51.2619C114.496 48.8455 116.245 47.1931 118.272 47.1931C120.3 47.1931 122.047 48.8455 122.047 51.2619C122.047 53.6513 120.3 55.329 118.272 55.329ZM118.272 44.5495C114.573 44.5495 111.558 47.3714 111.558 51.2619C111.558 55.1254 114.573 57.9742 118.272 57.9742C121.972 57.9742 124.987 55.1254 124.987 51.2619C124.987 47.3714 121.972 44.5495 118.272 44.5495Z" fill="white"/>
<path d="M84.2551 29.486C83.9141 29.9761 83.4371 30.3437 82.8243 30.5888C82.216 30.8292 81.5063 30.9495 80.6953 30.9495C79.8751 30.9495 79.147 30.7576 78.5111 30.3738C77.8752 29.9854 77.3821 29.4352 77.0319 28.7231C76.6863 28.011 76.5089 27.1857 76.4997 26.247V25.3662C76.4997 23.845 76.8522 22.6659 77.5572 21.829C78.2669 20.9921 79.2622 20.5736 80.5433 20.5736C81.5939 20.5736 82.4395 20.8441 83.08 21.3851C83.7205 21.9215 84.1122 22.6844 84.2551 23.6739H82.9279C82.6791 22.3376 81.8865 21.6695 80.5502 21.6695C79.6608 21.6695 78.9857 21.9839 78.5249 22.6127C78.0687 23.2369 77.8383 24.1432 77.8337 25.3315V26.1569C77.8337 27.2897 78.0918 28.1914 78.6079 28.8618C79.124 29.5276 79.8221 29.8606 80.7022 29.8606C81.1999 29.8606 81.6354 29.8051 82.0086 29.6941C82.3819 29.5831 82.6906 29.3959 82.9349 29.1323V26.8643H80.6055V25.7823H84.2551V29.486Z" fill="white"/>
<path d="M91.7379 26.143H87.3763V29.7218H92.4429V30.8107H86.0492V20.7123H92.3738V21.8082H87.3763V25.0541H91.7379V26.143Z" fill="white"/>
<path d="M100.762 21.8082H97.5272V30.8107H96.207V21.8082H92.979V20.7123H100.762V21.8082Z" fill="white"/>
<path d="M106.064 30.8107H104.737V20.7123H106.064V30.8107Z" fill="white"/>
<path d="M114.819 21.8082H111.584V30.8107H110.264V21.8082H107.036V20.7123H114.819V21.8082Z" fill="white"/>
<path d="M126.439 26.0875C126.439 27.077 126.273 27.9417 125.942 28.6815C125.61 29.4167 125.14 29.9785 124.531 30.3669C123.923 30.7553 123.214 30.9495 122.403 30.9495C121.61 30.9495 120.907 30.7553 120.294 30.3669C119.681 29.9738 119.205 29.4167 118.864 28.6954C118.527 27.9694 118.354 27.1302 118.345 26.1777V25.4494C118.345 24.4784 118.513 23.6207 118.85 22.8763C119.186 22.1318 119.661 21.5631 120.274 21.1701C120.891 20.7724 121.596 20.5736 122.389 20.5736C123.195 20.5736 123.905 20.7701 124.518 21.1632C125.135 21.5516 125.61 22.118 125.942 22.8624C126.273 23.6022 126.439 24.4646 126.439 25.4494V26.0875ZM125.119 25.4356C125.119 24.238 124.879 23.3202 124.4 22.6821C123.921 22.0394 123.25 21.718 122.389 21.718C121.55 21.718 120.889 22.0394 120.405 22.6821C119.926 23.3202 119.679 24.2079 119.665 25.3454V26.0875C119.665 27.2481 119.907 28.1613 120.391 28.8271C120.88 29.4883 121.55 29.8189 122.403 29.8189C123.26 29.8189 123.923 29.5068 124.393 28.8826C124.863 28.2538 125.105 27.3544 125.119 26.1846V25.4356Z" fill="white"/>
<path d="M135.74 30.8107H134.406L129.339 23.0289V30.8107H128.005V20.7123H129.339L134.42 28.5289V20.7123H135.74V30.8107Z" fill="white"/>
</svg>
