<svg width="16" height="19" viewBox="0 0 16 19" fill="none" xmlns="http://www.w3.org/2000/svg">
<path d="M8.41882 0.345703H7.58118C6.35907 0.346916 5.18737 0.820023 4.32321 1.6612C3.45904 2.50239 2.97301 3.64292 2.97176 4.83253V7.35194H2.58824C1.90179 7.35194 1.24346 7.61737 0.758076 8.08985C0.272688 8.56234 0 9.20316 0 9.87134V15.8263C0 16.1572 0.0669469 16.4848 0.197018 16.7904C0.327089 17.0961 0.517736 17.3738 0.758076 17.6078C0.998416 17.8417 1.28374 18.0273 1.59776 18.1539C1.91178 18.2805 2.24834 18.3457 2.58824 18.3457H13.4118C13.7517 18.3457 14.0882 18.2805 14.4022 18.1539C14.7163 18.0273 15.0016 17.8417 15.2419 17.6078C15.4823 17.3738 15.6729 17.0961 15.803 16.7904C15.9331 16.4848 16 16.1572 16 15.8263V9.87134C16 9.20316 15.7273 8.56234 15.2419 8.08985C14.7565 7.61737 14.0982 7.35194 13.4118 7.35194H13.0282V4.83253C13.027 3.64292 12.541 2.50239 11.6768 1.6612C10.8126 0.820023 9.64093 0.346916 8.41882 0.345703ZM4.38353 4.83253C4.38477 4.00739 4.72207 3.21639 5.32147 2.63292C5.92088 2.04946 6.73349 1.72114 7.58118 1.71992H8.41647C9.26456 1.72053 10.0778 2.04859 10.6777 2.63212C11.2776 3.21565 11.6152 4.00699 11.6165 4.83253V7.35194H4.38353V4.83253ZM14.5882 9.86218V15.8171C14.5882 16.1209 14.4643 16.4121 14.2437 16.6269C14.023 16.8417 13.7238 16.9623 13.4118 16.9623H2.58824C2.27622 16.9623 1.97698 16.8417 1.75634 16.6269C1.53571 16.4121 1.41176 16.1209 1.41176 15.8171V9.86218C1.41176 9.55846 1.53571 9.26718 1.75634 9.05241C1.97698 8.83765 2.27622 8.717 2.58824 8.717H13.4118C13.7238 8.717 14.023 8.83765 14.2437 9.05241C14.4643 9.26718 14.5882 9.55846 14.5882 9.86218Z" fill="#333333"/>
<rect x="1" y="8" width="14" height="10" rx="2" fill="#333333"/>
</svg>
