<svg width="155" height="43" viewBox="0 0 155 43" fill="none" xmlns="http://www.w3.org/2000/svg">
<path d="M89.1132 1.43936V4.66649C89.1228 4.8829 89.2245 5.08723 89.3965 5.2356C89.5685 5.38396 89.7971 5.46451 90.0332 5.45994H98.2042L88.7896 17.8192C88.1945 18.6137 88.1945 19.5067 88.1945 20.0031V23.2787C88.1945 23.7751 88.7893 24.2713 89.3304 24.0232C94.6327 21.3925 101.071 21.6406 105.887 23.9735C106.482 24.271 107.023 23.7254 107.023 23.229V19.8042C106.969 19.3575 106.806 18.8611 106.211 18.5633C103.506 17.1739 100.314 16.7769 97.2836 16.8265L105.4 6.20446C106.157 5.21136 106.59 4.61605 106.59 4.16933V1.43936C106.581 1.22282 106.479 1.01829 106.307 0.86977C106.135 0.721247 105.906 0.640592 105.67 0.645154H89.979C89.8637 0.639517 89.7484 0.656199 89.6405 0.694117C89.5327 0.732036 89.4348 0.79034 89.3532 0.865244C89.2715 0.940148 89.2079 1.02998 89.1666 1.12889C89.1253 1.2278 89.1071 1.33358 89.1132 1.43936Z" fill="#C4C4C4"/>
<path d="M27.1612 24.6688H31.9226C32.1563 24.6764 32.385 24.6048 32.5646 24.4674C32.7443 24.3301 32.8625 24.1367 32.8965 23.9244V12.0118C32.8965 11.934 32.8964 11.8554 32.8963 11.776C32.8932 9.17279 32.8891 5.80728 36.197 5.80728C39.2173 5.80728 39.1674 8.82509 39.1274 11.2379C39.123 11.5049 39.1187 11.7645 39.1187 12.0118V23.9244C39.1187 24.3216 39.4975 24.669 39.9845 24.7186H44.7459C44.982 24.7232 45.2107 24.6425 45.3827 24.494C45.5547 24.3455 45.6563 24.1409 45.6656 23.9244V12.0118C45.6656 11.898 45.6652 11.7797 45.6647 11.6576C45.6603 10.3946 45.6544 8.73447 46.0984 7.69351C46.3291 7.1642 46.7235 6.70832 47.233 6.38201C47.7425 6.0557 48.345 5.87319 48.9661 5.85697C50.373 5.85697 51.4011 6.30368 51.7797 7.79273C51.9494 8.49385 51.9194 10.112 51.8986 11.2319C51.8928 11.539 51.8878 11.8087 51.8878 12.0118V23.9244C51.8878 24.3216 52.2666 24.669 52.7536 24.7186H57.4615C57.6976 24.7232 57.9263 24.6425 58.0983 24.494C58.2703 24.3455 58.3718 24.1409 58.3812 23.9244V9.72864C58.3812 9.36693 58.3884 8.99863 58.3956 8.6275C58.4369 6.50314 58.4801 4.28601 57.1908 2.68044C55.8381 0.943113 53.6738 0.19859 51.6718 0.19859C48.858 0.19859 46.2064 1.53873 45.0705 4.36792C43.7718 1.53873 41.8781 0.19859 38.9023 0.19859C35.9805 0.19859 33.7618 1.53873 32.6259 4.36792H32.5177V1.43936C32.5002 1.2387 32.4018 1.05121 32.2418 0.913534C32.0817 0.775858 31.8714 0.69788 31.652 0.694836H27.2152C26.9791 0.690314 26.7504 0.770988 26.5784 0.919507C26.4064 1.06803 26.3048 1.27253 26.2955 1.48905V23.9243C26.3307 24.1183 26.4346 24.2964 26.591 24.4309C26.7475 24.5655 26.9478 24.6491 27.1612 24.6688Z" fill="#C4C4C4"/>
<path fill-rule="evenodd" clip-rule="evenodd" d="M131.046 12.8556C131.046 5.75775 127.204 0.19859 120.116 0.19859C113.191 0.19859 109.349 5.65838 109.403 12.6571C109.403 19.606 113.191 25.1652 120.116 25.1652C126.826 25.1652 131.046 19.7054 131.046 12.8556ZM116.383 11.9622C116.383 9.23225 116.599 4.81464 120.116 4.81464C121.631 4.81464 122.714 5.4101 123.255 6.99852C123.85 8.78553 123.958 11.0686 123.958 12.9549C123.958 15.8337 123.742 20.5492 120.062 20.5492C116.381 20.5492 116.382 14.8537 116.383 12.0777L116.383 11.9622Z" fill="#C4C4C4"/>
<path d="M135.429 24.6688H140.19C140.43 24.6668 140.66 24.5857 140.839 24.4397C141.018 24.2937 141.133 24.0931 141.164 23.875V11.7633C141.164 10.2246 141.272 8.88399 141.921 7.49462C142.462 6.40245 143.545 5.70776 144.68 5.70776C147.716 5.70776 147.685 8.73053 147.661 11.1467C147.658 11.3578 147.656 11.5642 147.656 11.7636V23.9737C147.71 24.321 148.089 24.6187 148.522 24.6684H153.284C153.504 24.6773 153.719 24.6113 153.889 24.483C154.059 24.3547 154.171 24.1733 154.204 23.9737V9.82756C154.204 7.64352 154.204 4.61575 152.959 2.82889C151.607 0.892824 149.496 0.198134 147.386 0.198134C144.086 0.198134 142.246 1.6375 140.893 4.71497H140.785V1.29016C140.737 1.11083 140.627 0.950804 140.47 0.834347C140.314 0.71789 140.121 0.651358 139.92 0.64485H135.483C135.257 0.646421 135.04 0.722615 134.871 0.859414C134.702 0.996213 134.593 1.18441 134.563 1.38937V23.8746C134.563 24.2718 134.942 24.6191 135.429 24.6688Z" fill="#C4C4C4"/>
<path fill-rule="evenodd" clip-rule="evenodd" d="M80.8799 24.8366C81.0837 24.8188 81.2763 24.7428 81.4305 24.6193L81.4323 24.6191C81.778 24.3548 82.2192 24.0092 82.6905 23.64C83.5468 22.9692 84.5025 22.2205 85.1656 21.7402C85.5442 21.4921 85.4902 20.9957 85.1656 20.5987C85.0613 20.4612 84.9562 20.3272 84.8521 20.1945C84.0916 19.2253 83.3801 18.3185 83.3801 16.5286V9.7285C83.3801 9.50124 83.3815 9.27522 83.3828 9.05067C83.3984 6.43133 83.4129 4.01257 81.27 2.18389C79.4303 0.545934 76.4004 0 74.0738 0C69.5289 0 64.4969 1.53873 63.4149 6.70087C63.3067 7.24695 63.7397 7.49507 64.1183 7.59429L68.7174 8.04101C69.1503 8.04101 69.4208 7.64383 69.5289 7.2468C69.9077 5.45979 71.5309 4.61604 73.3706 4.61604C74.3437 4.61604 75.4259 4.96339 76.021 5.7576C76.6428 6.5475 76.6303 7.60926 76.619 8.56487C76.6175 8.69012 76.6161 8.81354 76.6161 8.93429V9.48022C76.1675 9.52864 75.696 9.57445 75.2097 9.6217C72.7053 9.865 69.8092 10.1464 67.6345 11.019C64.6578 12.2103 62.5476 14.5928 62.5476 18.1665C62.5476 22.6834 65.6858 24.9666 69.6898 24.9666C73.0443 24.9666 74.9381 24.2213 77.5352 21.7899C77.6617 21.9566 77.7766 22.1117 77.8855 22.2587C78.5226 23.1183 78.9547 23.7012 80.2946 24.7185C80.4714 24.8131 80.6762 24.8544 80.8799 24.8366ZM76.6153 14.2142C76.6151 14.126 76.615 14.0372 76.615 13.9477V13.0053C73.1521 13.0053 69.527 13.7003 69.527 17.4229C69.527 19.3091 70.609 20.5996 72.4487 20.5996C73.8014 20.5996 74.9919 19.8551 75.7492 18.6142C76.6203 17.1563 76.618 15.7883 76.6153 14.2142Z" fill="#C4C4C4"/>
<path fill-rule="evenodd" clip-rule="evenodd" d="M18.3323 24.8366C18.5361 24.8188 18.7286 24.7428 18.8829 24.6193L18.8847 24.6191C19.2304 24.3548 19.6716 24.0092 20.1428 23.64C20.9992 22.9692 21.9549 22.2205 22.618 21.7402C22.9966 21.4921 22.9426 20.9957 22.618 20.5987C22.5137 20.4612 22.4086 20.3272 22.3044 20.1945C21.544 19.2253 20.8325 18.3185 20.8325 16.5286V9.7285C20.8325 9.50125 20.8338 9.27523 20.8352 9.05068C20.8508 6.43134 20.8652 4.01257 18.7223 2.18389C16.8827 0.545934 13.8528 0 11.5262 0C6.98131 0 1.9493 1.53873 0.867232 6.70087C0.759075 7.24695 1.19203 7.49507 1.57066 7.59429L6.16972 8.04101C6.60268 8.04101 6.87315 7.64383 6.98131 7.2468C7.36011 5.45979 8.98328 4.61604 10.8229 4.61604C11.796 4.61604 12.8782 4.96339 13.4734 5.7576C14.0951 6.5475 14.0826 7.60927 14.0714 8.56487C14.0699 8.69012 14.0685 8.81354 14.0685 8.93429V9.48022C13.6199 9.52864 13.1483 9.57445 12.662 9.6217C10.1577 9.865 7.26162 10.1464 5.08683 11.019C2.11013 12.2103 0 14.5928 0 18.1665C0 22.6834 3.1382 24.9666 7.14214 24.9666C10.4967 24.9666 12.3905 24.2213 14.9876 21.7899C15.114 21.9566 15.229 22.1117 15.3379 22.2587C15.975 23.1183 16.407 23.7012 17.747 24.7185C17.9238 24.8131 18.1285 24.8544 18.3323 24.8366ZM14.1218 14.2142C14.1216 14.126 14.1215 14.0372 14.1215 13.9477V13.0053C10.6586 13.0053 7.03349 13.7003 7.03349 17.4229C7.03349 19.3091 8.11556 20.5996 9.95521 20.5996C11.3079 20.5996 12.4985 19.8551 13.2557 18.6142C14.1268 17.1563 14.1245 15.7883 14.1218 14.2142Z" fill="#C4C4C4"/>
<path d="M99.3928 29.3842C98.2569 28.0441 91.8179 28.7389 88.9503 29.0864C88.0846 29.1856 87.9223 28.4908 88.7339 27.9944C93.874 24.6688 102.261 25.6615 103.234 26.7535C104.208 27.8455 102.964 35.5881 98.1476 39.2616C97.3904 39.8076 96.6868 39.5098 97.0117 38.7652L97.0684 38.6354C98.1764 36.0964 100.51 30.7499 99.3928 29.3842Z" fill="#C4C4C4"/>
<path d="M95.6598 33.3058C86.7321 39.3616 73.7466 42.5877 62.5465 42.5877C46.8555 42.5877 32.7878 37.2767 22.0747 28.4416C21.2631 27.7469 21.9666 26.8036 22.9945 27.3496C34.5192 33.5043 48.7493 37.1774 63.4662 37.1774C73.3678 37.1774 84.2972 35.2914 94.3611 31.37C95.8756 30.8241 97.1207 32.3131 95.6598 33.3058Z" fill="#C4C4C4"/>
</svg>
