<svg width="16" height="18" viewBox="0 0 16 18" fill="none" xmlns="http://www.w3.org/2000/svg">
<path d="M10.6205 16.022C10.9668 16.022 11.2438 16.3452 11.2438 16.7146C11.2438 17.084 10.9668 17.4072 10.6205 17.4072H2.44764C1.10859 17.4072 0.000413895 16.276 0.000413895 14.8215L0.000413895 3.57808C0.000413895 2.14668 1.10859 0.992325 2.44764 0.992325H10.6205C10.9668 0.992325 11.2438 1.31554 11.2438 1.68494C11.2438 2.05433 10.9668 2.37755 10.6205 2.37755L2.44764 2.37755C1.77812 2.37755 1.24711 2.90855 1.24711 3.55499L1.24711 14.7984C1.24711 15.4217 1.77812 15.9758 2.44764 15.9758L10.6205 15.9758V16.022ZM13.0677 9.88085H6.04922C5.81835 9.88085 5.63366 9.55763 5.63366 9.18823C5.63366 8.79575 5.81835 8.49562 6.04922 8.49562L13.0677 8.49562L10.5281 5.95604C10.2511 5.679 10.2511 5.24034 10.5281 4.9633C10.8052 4.68625 11.2438 4.68625 11.5209 4.9633L15.261 8.7034C15.538 8.98045 15.538 9.4191 15.261 9.69615L11.5209 13.4363C11.2438 13.7133 10.8052 13.7133 10.5281 13.4363C10.2511 13.1592 10.2511 12.7206 10.5281 12.4435L13.0677 9.88085Z" fill="#333333"/>
</svg>
