<svg width="12" height="13" viewBox="0 0 12 13" fill="none" xmlns="http://www.w3.org/2000/svg">
<rect width="12" height="13" fill="#E5E5E5"/>
<mask id="path-1-inside-1_24_2260" fill="white">
<rect x="-5398" y="-2023" width="8212" height="3841" rx="24"/>
</mask>
<rect x="-5398" y="-2023" width="8212" height="3841" rx="24" stroke="black" stroke-width="60" mask="url(#path-1-inside-1_24_2260)"/>
<g clip-path="url(#clip0_24_2260)">
<g filter="url(#filter0_d_24_2260)">
<rect x="-17" y="-294" width="251" height="811.001" fill="white"/>
</g>
<rect width="251" height="47.941" transform="translate(-17 -18)" fill="white"/>
<g clip-path="url(#clip1_24_2260)">
<path fill-rule="evenodd" clip-rule="evenodd" d="M2.85988 11.0466L5.53588 11.9975C5.82438 12.1005 6.13738 12.0978 6.42488 11.9906C7.21988 11.6941 9.28988 10.9213 10.3904 10.5101C10.6729 10.405 10.9024 10.181 11.0264 9.89033C11.1504 9.59967 11.1574 9.2674 11.0464 8.9714L11.0459 8.9698C10.8499 8.44767 10.3174 8.16607 9.80938 8.31647C8.95038 8.57087 7.42038 9.02313 7.42038 9.02313C7.22088 9.08233 7.10388 9.30313 7.15938 9.51593C7.21488 9.72873 7.42138 9.853 7.62088 9.79433L10.0099 9.08713C10.1494 9.04607 10.2959 9.1234 10.3494 9.26687L10.3499 9.26847C10.3854 9.36233 10.3829 9.46687 10.3439 9.55913C10.3044 9.65087 10.2319 9.7218 10.1424 9.7554L6.17688 11.2354C6.04638 11.2845 5.90438 11.2855 5.77288 11.2386L3.09688 10.2871C2.90088 10.2178 2.68788 10.3309 2.62288 10.5405C2.55738 10.7501 2.66338 10.9767 2.85988 11.0466Z" fill="#484848"/>
<path fill-rule="evenodd" clip-rule="evenodd" d="M3.06705 7.84075C3.06705 7.84075 4.13655 7.56342 4.71105 7.41462C4.85505 7.37728 5.00605 7.39542 5.13855 7.46582L7.08555 8.50475C7.17905 8.55435 7.24905 8.64395 7.27805 8.75115C7.30755 8.85835 7.29355 8.97355 7.23955 9.06955C7.15255 9.22422 6.96905 9.28128 6.81805 9.20075L5.39605 8.44235C5.21105 8.34368 4.98555 8.42368 4.89305 8.62155C4.80055 8.81888 4.87555 9.05942 5.06105 9.15808C5.06105 9.15808 5.89205 9.60128 6.48255 9.91648C6.98405 10.1837 7.59405 9.99435 7.88255 9.48128L7.88305 9.48075C8.04405 9.19382 8.08605 8.84822 7.99805 8.52715C7.91055 8.20608 7.70105 7.93835 7.42055 7.78902L5.47405 6.75062C5.18305 6.59542 4.85005 6.55542 4.53405 6.63702C3.95955 6.78582 2.89005 7.06315 2.89005 7.06315C2.68905 7.11542 2.56555 7.33195 2.61405 7.54635C2.66305 7.76075 2.86605 7.89248 3.06705 7.84075Z" fill="#484848"/>
<path fill-rule="evenodd" clip-rule="evenodd" d="M3.35352 6.93345C3.35352 6.71265 3.18552 6.53345 2.97852 6.53345H0.978516C0.771516 6.53345 0.603516 6.71265 0.603516 6.93345V11.7334C0.603516 11.9542 0.771516 12.1334 0.978516 12.1334H2.97852C3.18552 12.1334 3.35352 11.9542 3.35352 11.7334V6.93345Z" fill="#484848"/>
<path fill-rule="evenodd" clip-rule="evenodd" d="M2.85352 4.80008C2.85352 5.31528 3.24552 5.73341 3.72852 5.73341H9.22852C9.71202 5.73341 10.1035 5.31528 10.1035 4.80008V1.60008C10.1035 1.08488 9.71202 0.666748 9.22852 0.666748H3.72852C3.24552 0.666748 2.85352 1.08488 2.85352 1.60008V4.80008ZM6.50002 1.86675C5.81002 1.86675 5.25002 2.46408 5.25002 3.20008C5.25002 3.93608 5.81002 4.53341 6.50002 4.53341C7.19002 4.53341 7.75002 3.93608 7.75002 3.20008C7.75002 2.46408 7.19002 1.86675 6.50002 1.86675ZM6.50002 2.66675C6.77602 2.66675 7.00002 2.90568 7.00002 3.20008C7.00002 3.49448 6.77602 3.73341 6.50002 3.73341C6.22402 3.73341 6.00002 3.49448 6.00002 3.20008C6.00002 2.90568 6.22402 2.66675 6.50002 2.66675Z" fill="#484848"/>
</g>
</g>
<defs>
<filter id="filter0_d_24_2260" x="-17.33" y="-294" width="251.33" height="811.001" filterUnits="userSpaceOnUse" color-interpolation-filters="sRGB">
<feFlood flood-opacity="0" result="BackgroundImageFix"/>
<feColorMatrix in="SourceAlpha" type="matrix" values="0 0 0 0 0 0 0 0 0 0 0 0 0 0 0 0 0 0 127 0" result="hardAlpha"/>
<feOffset dx="-0.33"/>
<feColorMatrix type="matrix" values="0 0 0 0 0.235294 0 0 0 0 0.235294 0 0 0 0 0.262745 0 0 0 0.29 0"/>
<feBlend mode="normal" in2="BackgroundImageFix" result="effect1_dropShadow_24_2260"/>
<feBlend mode="normal" in="SourceGraphic" in2="effect1_dropShadow_24_2260" result="shape"/>
</filter>
<clipPath id="clip0_24_2260">
<rect width="375" height="812" fill="white" transform="translate(-17 -294)"/>
</clipPath>
<clipPath id="clip1_24_2260">
<rect width="12" height="16" fill="white"/>
</clipPath>
</defs>
</svg>
