<svg width="186" height="41" viewBox="0 0 186 41" fill="none" xmlns="http://www.w3.org/2000/svg">
<g clip-path="url(#clip0)">
<path d="M20.1945 0C9.04658 0 0 9.18327 0 20.4997C0 31.8161 9.04718 41 20.1945 41C31.3431 41 40.3891 31.8161 40.3891 20.4997C40.3891 9.18327 31.3431 0 20.1945 0Z" fill="white"/>
<path d="M20.1925 0.871338C9.51891 0.871338 0.858154 9.66229 0.858154 20.4978C0.858154 31.3333 9.51891 40.1311 20.1925 40.1311C30.8667 40.1311 39.5323 31.3333 39.5323 20.4978C39.5323 9.66229 30.8661 0.871338 20.1925 0.871338ZM20.198 1.32685C20.3097 1.32685 20.4263 1.36277 20.5167 1.42909C20.6152 1.50045 20.6895 1.60116 20.7291 1.71727V1.72286L20.7352 1.72967L21.3793 4.10449C29.7641 4.72175 36.3888 11.8301 36.3888 20.4978C36.3888 23.0561 35.8106 25.4805 34.7819 27.6421L36.4425 29.3402L36.448 29.3457L36.4541 29.3519C36.5359 29.4491 36.5793 29.5614 36.5896 29.6753C36.6013 29.7913 36.5786 29.9127 36.5194 30.0168C36.461 30.1199 36.3722 30.2019 36.2655 30.251C36.1585 30.3013 36.0387 30.316 35.923 30.2932H35.9046L33.6238 29.687C30.7116 34.0612 25.7787 36.9392 20.1932 36.9392C14.6063 36.9392 9.67825 34.0612 6.76671 29.687L4.49257 30.2993H4.47424C4.34666 30.3229 4.23004 30.2969 4.13174 30.251C4.02309 30.2002 3.93509 30.1184 3.87779 30.0168C3.8222 29.9201 3.79534 29.7974 3.80756 29.6822C3.8173 29.5675 3.86067 29.4553 3.94312 29.3574L3.94923 29.3519L3.95533 29.3457L5.60985 27.6482C4.5787 25.486 4.00239 23.0591 4.00239 20.4978C4.00239 11.8258 10.6283 4.71554 19.018 4.10449L19.6499 1.73459L19.6554 1.72219V1.71665C19.6957 1.60073 19.7683 1.50033 19.8678 1.42848C19.9696 1.35473 20.0857 1.32685 20.198 1.32685ZM20.198 1.5667C20.129 1.5667 20.0588 1.58653 20.0026 1.62681C19.9454 1.66845 19.9023 1.72712 19.8793 1.79471L18.4727 7.07304C18.4373 7.1759 18.422 7.2949 18.455 7.39776C18.4886 7.50062 18.5508 7.588 18.6381 7.64873C18.8908 7.82595 18.9855 8.15877 19.1052 8.48283C19.2242 8.80575 19.2431 9.0846 19.1583 9.4187C19.0741 9.75331 18.8787 10.0576 18.6204 10.282C18.1571 10.6854 17.7455 11.1732 17.4861 11.7452C17.226 12.3185 17.1381 12.9314 17.1381 13.5518V15.0751L9.8693 10.8162L9.06584 12.2193L17.138 16.946V18.6608L15.6838 19.5129L7.61151 14.7801L6.80746 16.1894L14.0756 20.4544L12.7758 21.2167C12.2471 21.5259 11.7697 21.9133 11.4107 22.4277C11.0511 22.942 10.8429 23.5519 10.7313 24.1618C10.6684 24.5001 10.5072 24.8186 10.2642 25.0616C10.0212 25.3027 9.77277 25.4173 9.43698 25.4744C9.10179 25.5314 8.77398 25.6262 8.49741 25.4924C8.40164 25.446 8.29326 25.4335 8.18969 25.4571C8.08528 25.4782 7.98148 25.5352 7.91191 25.6183L4.11881 29.5109C4.07358 29.5641 4.04798 29.6341 4.04126 29.7036C4.03394 29.7725 4.04859 29.8349 4.08216 29.8958C4.11666 29.956 4.16813 30.0043 4.22994 30.0346C4.29279 30.0631 4.36363 30.0755 4.43138 30.0637L9.64271 28.6599C9.74772 28.6401 9.85516 28.5911 9.9266 28.5099C9.99683 28.4287 10.042 28.3302 10.0512 28.2224C10.075 27.9113 10.3124 27.6664 10.5292 27.4006C10.7459 27.1335 10.9755 26.9767 11.3033 26.885C11.6311 26.7921 11.981 26.8131 12.3015 26.9271C12.8778 27.1323 13.503 27.2493 14.122 27.1899C14.7398 27.1323 15.3071 26.9072 15.8352 26.5973L17.1356 25.8344V34.3521H18.7369V24.8992L20.1966 24.0415L21.6503 24.893V34.352H23.2577V25.8344L24.5514 26.5973C25.0807 26.9059 25.6522 27.1322 26.2706 27.1898C26.8897 27.2493 27.5149 27.126 28.0912 26.9202C28.4117 26.8061 28.7676 26.7857 29.0955 26.8786C29.4221 26.9715 29.6413 27.1333 29.858 27.4005C30.0735 27.6663 30.3177 27.9062 30.3416 28.2161C30.3507 28.3239 30.3947 28.423 30.4661 28.5042C30.5369 28.5854 30.6395 28.6511 30.7439 28.6722L35.9613 30.0585C36.0291 30.0709 36.1005 30.0635 36.1628 30.035C36.225 30.005 36.2765 29.9563 36.3105 29.8955C36.3441 29.836 36.3575 29.7678 36.3514 29.6978C36.3447 29.6278 36.319 29.5584 36.2745 29.5057L32.4747 25.6249C32.4057 25.5425 32.3068 25.473 32.203 25.452C32.0986 25.4296 31.9918 25.4403 31.8953 25.4872C31.6181 25.6211 31.2915 25.5326 30.9563 25.4755C30.6206 25.4172 30.3721 25.2971 30.1291 25.0553C29.8862 24.8136 29.7256 24.495 29.6621 24.1567C29.5498 23.5456 29.3416 22.9359 28.9826 22.4227C28.6236 21.907 28.1407 21.5266 27.612 21.2167L26.3122 20.4545L33.5859 16.19L32.7819 14.7863L24.7102 19.5192L23.256 18.6671V16.9517L31.3282 12.2256L30.5247 10.8157L23.2566 15.0745V13.5506C23.2566 12.9309 23.1626 12.3179 22.9025 11.7447C22.6424 11.1721 22.2254 10.685 21.762 10.2815C21.5032 10.0565 21.3151 9.7529 21.2303 9.41819C21.1454 9.08358 21.1699 8.80596 21.2889 8.48236C21.408 8.15887 21.4916 7.82483 21.7444 7.64822C21.8323 7.58692 21.9 7.49954 21.9336 7.39663C21.9672 7.29439 21.9691 7.17477 21.9336 7.07314L20.5038 1.79425C20.4807 1.72854 20.4355 1.66658 20.3799 1.62563C20.3271 1.58659 20.2633 1.56591 20.198 1.5667ZM20.198 11.77C20.5796 11.77 20.9556 11.9281 21.2261 12.202C21.4965 12.4766 21.6516 12.859 21.6516 13.2463V16.0171L20.198 16.8693L18.7383 16.0109V13.2456C18.7383 12.8582 18.8939 12.4765 19.1638 12.202C19.4342 11.9274 19.8164 11.77 20.198 11.77ZM20.198 18.7464L21.6516 19.5979V21.3139L20.2041 22.1649L18.7389 21.3077V19.6041L20.198 18.7464ZM15.6778 21.3921L17.1369 22.2504V23.9652L14.7791 25.3454C14.4488 25.5387 14.0434 25.5883 13.6741 25.4892C13.3047 25.3888 12.9781 25.1347 12.7876 24.7994C12.5965 24.4649 12.5465 24.0514 12.6454 23.6783C12.7443 23.3028 12.9885 22.9718 13.3194 22.7784L15.6778 21.3921ZM24.7128 21.3921L27.0761 22.7784C27.407 22.9717 27.6567 23.2965 27.7556 23.6715C27.8551 24.0464 27.7928 24.4641 27.6017 24.7988C27.4112 25.1335 27.0901 25.3826 26.7207 25.483C26.3526 25.5823 25.9466 25.5313 25.6163 25.338L23.2579 23.9585V22.243L24.7128 21.3921Z" fill="#C4C4C4"/>
<path d="M43.7272 3.27586L51.1754 26.3629V37.6396H58.5242V26.3629L65.5524 3.27586H58.9094L54.7359 18.2785L50.6821 3.27586H43.7272ZM89.5998 3.27586V37.6397H95.7123V15.3539L99.2155 37.6397H103.831L107.327 15.3539V37.6397H113.554V3.27591H104.221L101.558 19.6227L98.9927 3.27591L89.5998 3.27586ZM141.907 3.27586V37.6397H148.721V23.1564H154.524V37.6397H161.175V3.27591H154.524V16.9467H148.721V3.27586H141.907ZM170.855 3.26904L164.968 37.6384H171.613L172.923 29.2429H178.014L179.298 37.6384H186L180.111 3.26904H170.855ZM175.524 10.8063L177.256 23.24H173.719L175.524 10.8063ZM123.138 3.26904L117.251 37.6384H123.895L125.206 29.2429H130.298L131.581 37.6384H138.283L132.394 3.26904H123.138ZM127.807 10.8063L129.54 23.24H126.002L127.807 10.8063ZM70.8578 3.26904L64.9699 37.6384H71.6148L72.9243 29.2429H78.0166L79.2993 37.6384H86.0021L80.1138 3.26904H70.8578ZM75.5264 10.8063L77.2596 23.24H73.721L75.5264 10.8063Z" fill="#C4C4C4"/>
</g>
<defs>
<clipPath id="clip0">
<rect width="186" height="41" fill="white"/>
</clipPath>
</defs>
</svg>
